<svg xmlns="http://www.w3.org/2000/svg" xmlns:xlink="http://www.w3.org/1999/xlink" width="500" zoomAndPan="magnify" viewBox="0 0 375 374.999991" height="500" preserveAspectRatio="xMidYMid meet" version="1.2"><defs><clipPath id="79ae8554a3"><rect x="0" width="207" y="0" height="287"/></clipPath></defs><g id="b4a37be2be"><path style=" stroke:none;fill-rule:nonzero;fill:#000000;fill-opacity:1;" d="M 353.09375 197.082031 C 348.742188 194.753906 345.269531 192.46875 342.5 190.226562 C 341.089844 189.082031 339.90625 188.027344 338.851562 186.839844 C 337.75 185.609375 336.828125 184.378906 336.035156 183.148438 C 335.332031 184.511719 334.761719 186.136719 334.144531 187.585938 C 333.53125 188.996094 332.957031 190.445312 332.5625 191.941406 C 331.773438 194.929688 331.507812 198.09375 332.300781 201.4375 C 332.78125 204.734375 334.101562 208.207031 336.871094 211.941406 C 339.640625 215.679688 343.863281 219.722656 349.3125 224.078125 C 356.960938 230.054688 361.136719 236.648438 362.546875 242.894531 C 364.832031 240.429688 366.765625 237.265625 368.390625 233.660156 C 369.886719 230.054688 371.382812 226.097656 370.984375 221.789062 C 370.503906 213.21875 366.238281 203.941406 353.09375 197.039062 Z M 353.09375 197.082031 "/><path style=" stroke:none;fill-rule:nonzero;fill:#000000;fill-opacity:1;" d="M 347.160156 232.386719 C 339.554688 225.96875 335.507812 220.515625 333.222656 215.503906 C 331.597656 217.746094 329.441406 220.164062 328.167969 222.933594 C 326.714844 225.660156 326.144531 228.824219 325.792969 232.121094 C 325.222656 238.761719 328.648438 247.023438 337.53125 257.929688 C 343.773438 265.445312 346.632812 272.875 346.324219 279.117188 C 347.6875 278.152344 349.09375 277.050781 350.5 275.820312 C 351.820312 274.546875 353.003906 273.050781 354.148438 271.46875 C 356.433594 268.304688 358.324219 264.566406 359.292969 260.433594 C 360.039062 256.214844 359.644531 251.554688 357.886719 246.804688 C 357.007812 244.429688 355.730469 242.011719 354.015625 239.640625 C 352.300781 237.222656 349.882812 234.804688 347.113281 232.429688 Z M 347.160156 232.386719 "/><path style=" stroke:none;fill-rule:nonzero;fill:#000000;fill-opacity:1;" d="M 333.792969 265.621094 C 327.726562 257.707031 324.648438 251.332031 323.726562 246.058594 C 321.398438 247.773438 319.066406 249.792969 317.175781 252.257812 C 316.207031 253.488281 315.460938 254.804688 314.714844 256.214844 C 313.878906 257.578125 313.21875 259.027344 312.78125 260.652344 C 311.855469 263.863281 311.855469 267.730469 312.78125 272.304688 C 313.527344 276.742188 315.460938 282.0625 318.804688 288.480469 C 323.550781 297.363281 324.210938 304.792969 322.804688 311.035156 C 325.835938 309.671875 329.222656 307.871094 332.210938 305.363281 C 335.070312 302.679688 337.617188 299.429688 339.378906 295.558594 C 341.269531 291.777344 341.882812 287.117188 341.046875 282.019531 C 340.257812 276.917969 338.101562 271.46875 333.792969 265.710938 Z M 333.792969 265.621094 "/><path style=" stroke:none;fill-rule:nonzero;fill:#000000;fill-opacity:1;" d="M 313.394531 295.074219 C 309.570312 286.371094 307.546875 279.207031 307.769531 273.84375 C 305.175781 275.074219 302.535156 276.613281 300.207031 278.632812 C 297.789062 280.570312 295.503906 282.765625 294.007812 285.84375 C 293.261719 287.339844 292.644531 289.054688 292.25 290.988281 C 291.808594 292.835938 291.457031 294.8125 291.371094 297.140625 C 291.238281 301.714844 291.984375 307.386719 293.964844 314.375 C 296.515625 323.828125 295.589844 331.300781 293.039062 337.234375 C 299.414062 335.785156 307.679688 332.753906 312.515625 325.542969 C 314.933594 321.980469 316.957031 318.023438 317.132812 312.75 C 317.394531 307.5625 316.339844 301.671875 313.394531 295.121094 Z M 313.394531 295.074219 "/><path style=" stroke:none;fill-rule:nonzero;fill:#000000;fill-opacity:1;" d="M 287.238281 319.519531 C 286.226562 314.726562 285.699219 310.640625 285.609375 307.078125 C 285.523438 303.515625 285.65625 300.265625 286.269531 297.582031 C 280.90625 299.164062 274.445312 301.011719 270.355469 306.417969 C 268.289062 309.144531 266.355469 312.175781 265.34375 316.75 C 264.246094 321.234375 263.9375 327.167969 264.15625 334.113281 C 264.554688 343.785156 262.222656 351.214844 258.398438 356.359375 C 261.738281 356.449219 265.433594 355.921875 269.214844 354.863281 C 272.949219 353.722656 276.90625 352.226562 279.941406 349.105469 C 283.0625 346.160156 285.699219 342.378906 287.195312 337.585938 C 288.6875 332.753906 288.730469 326.554688 287.238281 319.519531 Z M 287.238281 319.519531 "/><path style=" stroke:none;fill-rule:nonzero;fill:#000000;fill-opacity:1;" d="M 256.464844 337.851562 C 256.464844 327.871094 258.003906 321.367188 260.289062 316.308594 C 257.5625 316.574219 254.308594 316.484375 251.363281 317.277344 C 248.332031 317.9375 245.5625 319.476562 242.835938 321.410156 C 237.382812 325.234375 233.339844 333.234375 230.789062 347.039062 C 229.074219 356.578125 225.292969 363.703125 220.371094 367.480469 C 221.996094 367.878906 223.757812 368.316406 225.601562 368.539062 C 227.40625 368.667969 229.339844 368.667969 231.273438 368.492188 C 235.1875 368.1875 239.273438 367.21875 243.011719 365.285156 C 246.703125 363.085938 250.046875 359.789062 252.507812 355.394531 C 253.738281 353.195312 254.75 350.644531 255.453125 347.832031 C 256.113281 344.886719 256.464844 341.542969 256.464844 337.894531 Z M 256.464844 337.851562 "/><path style=" stroke:none;fill-rule:nonzero;fill:#000000;fill-opacity:1;" d="M 222.480469 349.148438 C 224.636719 339.433594 227.449219 332.972656 230.878906 328.882812 C 228.0625 328.222656 224.988281 327.742188 221.910156 327.871094 C 220.371094 327.960938 218.832031 328.136719 217.292969 328.574219 C 215.753906 328.882812 214.171875 329.277344 212.675781 329.980469 C 209.601562 331.34375 206.65625 333.71875 203.796875 337.5 C 200.894531 341.015625 198.082031 345.808594 195.355469 352.492188 C 193.507812 357.0625 191.269531 360.800781 188.804688 363.789062 C 186.34375 366.734375 183.617188 368.667969 180.804688 370.164062 C 186.738281 373.460938 195.136719 375.042969 203.355469 372.800781 C 207.445312 371.878906 211.402344 369.019531 214.742188 365.242188 C 218.085938 361.328125 220.898438 356.273438 222.480469 349.148438 Z M 222.480469 349.148438 "/><path style=" stroke:none;fill-rule:nonzero;fill:#000000;fill-opacity:1;" d="M 186.828125 352.800781 C 191.003906 343.875 195.136719 337.984375 199.355469 334.6875 C 194.125 332.136719 187.882812 330.773438 181.332031 331.917969 C 178.035156 332.574219 174.605469 334.511719 171.042969 337.367188 C 167.484375 340.136719 163.703125 344.3125 159.613281 350.292969 C 156.84375 354.335938 153.8125 357.722656 150.777344 359.875 C 147.746094 362.074219 144.667969 363.570312 141.589844 364.40625 C 144.226562 366.425781 147.394531 368.625 151.042969 370.074219 C 154.734375 371.308594 158.867188 372.054688 163.085938 371.789062 C 165.199219 371.613281 167.351562 371.308594 169.507812 370.515625 C 171.660156 369.636719 173.769531 368.449219 175.835938 366.910156 C 179.925781 363.789062 183.75 359.261719 186.828125 352.800781 Z M 186.828125 352.800781 "/><path style=" stroke:none;fill-rule:nonzero;fill:#000000;fill-opacity:1;" d="M 151.21875 348.667969 C 152.710938 346.730469 154.164062 345.0625 155.527344 343.523438 C 156.933594 341.941406 158.339844 340.488281 159.660156 339.214844 C 162.339844 336.707031 164.890625 334.90625 167.308594 333.675781 C 165.023438 331.960938 162.429688 330.335938 159.570312 329.277344 C 156.714844 328.09375 153.722656 327.035156 150.339844 327.167969 C 143.480469 327.609375 135.785156 330.378906 125.148438 340.488281 C 117.894531 347.304688 110.949219 349.808594 104.53125 350.335938 C 106.640625 352.886719 109.367188 355.523438 112.574219 357.765625 C 115.738281 360.183594 119.785156 361.371094 123.960938 362.074219 C 132.3125 363.570312 142.46875 359.921875 151.21875 348.578125 Z M 151.21875 348.667969 "/><path style=" stroke:none;fill-rule:nonzero;fill:#000000;fill-opacity:1;" d="M 117.367188 336.972656 C 121.101562 333.851562 124.488281 331.476562 127.609375 329.761719 C 130.773438 327.828125 133.675781 326.597656 136.316406 325.851562 C 134.46875 323.652344 132.136719 321.847656 129.71875 319.871094 C 127.257812 317.9375 124.445312 316.53125 121.101562 315.914062 C 117.675781 315.476562 114.113281 315.125 109.585938 316.355469 C 105.144531 317.410156 99.738281 319.957031 93.671875 323.433594 C 85.273438 328.3125 77.757812 329.585938 71.292969 328.707031 C 72.875 331.566406 74.988281 334.6875 77.667969 337.542969 C 80.351562 340.402344 83.648438 342.996094 87.78125 344.3125 C 91.824219 345.722656 96.398438 346.292969 101.320312 345.414062 C 106.375 344.3125 111.828125 341.589844 117.367188 336.972656 Z M 117.367188 336.972656 "/><path style=" stroke:none;fill-rule:nonzero;fill:#000000;fill-opacity:1;" d="M 86.8125 318.332031 C 91.164062 316.046875 95.035156 314.417969 98.460938 313.363281 C 100.175781 312.835938 101.761719 312.484375 103.253906 312.222656 C 104.792969 311.914062 106.289062 311.695312 107.652344 311.605469 C 106.15625 309.277344 104.617188 306.550781 102.59375 304.175781 C 100.574219 301.800781 98.023438 299.957031 94.902344 298.59375 C 89.054688 295.515625 80 295.691406 66.589844 299.910156 C 61.929688 301.40625 57.664062 302.109375 53.796875 302.152344 C 51.863281 302.152344 50.015625 302.066406 48.300781 301.757812 C 46.632812 301.40625 45.09375 300.921875 43.640625 300.308594 C 44.039062 301.933594 44.476562 303.691406 45.179688 305.40625 C 45.925781 307.078125 46.808594 308.75 47.863281 310.417969 C 49.972656 313.714844 52.699219 316.882812 56.171875 319.300781 C 63.644531 323.5625 73.578125 325.410156 86.726562 318.375 Z M 86.8125 318.332031 "/><path style=" stroke:none;fill-rule:nonzero;fill:#000000;fill-opacity:1;" d="M 60.875 293.582031 C 70.457031 290.898438 77.449219 290.417969 82.679688 291.515625 C 81.976562 288.703125 80.921875 285.757812 79.382812 283.117188 C 78.589844 281.800781 77.710938 280.523438 76.613281 279.382812 C 75.601562 278.195312 74.503906 276.964844 73.183594 275.953125 C 70.546875 273.886719 67.03125 272.390625 62.371094 271.644531 C 57.972656 270.722656 52.347656 270.5 45.179688 271.25 C 40.300781 271.730469 35.859375 271.554688 32.125 270.765625 C 28.472656 269.886719 25.351562 268.480469 22.757812 266.675781 C 22.933594 269.972656 23.199219 273.84375 24.605469 277.535156 C 26.011719 281.183594 28.121094 284.789062 31.023438 287.867188 C 33.839844 291.03125 38.058594 293.230469 43.027344 294.417969 C 48.082031 295.515625 53.796875 295.605469 60.875 293.625 Z M 60.875 293.582031 "/><path style=" stroke:none;fill-rule:nonzero;fill:#000000;fill-opacity:1;" d="M 40.960938 263.820312 C 50.542969 263.421875 57.929688 264.214844 62.808594 266.414062 C 62.632812 263.554688 62.238281 260.523438 61.183594 257.621094 C 60.128906 254.761719 59.074219 251.730469 56.785156 249.222656 C 52.039062 244.253906 44.917969 240.210938 30.320312 238.628906 C 20.339844 237.574219 14.011719 233.878906 9.4375 229.265625 C 8.867188 232.515625 8.601562 236.296875 8.957031 240.253906 C 9.21875 244.210938 10.84375 248.082031 13.042969 251.730469 C 17.308594 259.070312 26.714844 264.390625 40.960938 263.820312 Z M 40.960938 263.820312 "/><path style=" stroke:none;fill-rule:nonzero;fill:#000000;fill-opacity:1;" d="M 27.992188 230.453125 C 32.828125 231.285156 36.738281 232.339844 40.125 233.574219 C 43.640625 234.757812 46.457031 236.121094 48.699219 237.707031 C 49.179688 234.890625 49.09375 231.902344 49.003906 228.78125 C 48.875 225.660156 48.167969 222.582031 46.457031 219.636719 C 44.609375 216.734375 42.453125 213.832031 38.675781 211.152344 C 34.9375 208.46875 29.75 205.964844 22.890625 203.589844 C 13.792969 200.335938 7.988281 195.414062 4.558594 189.960938 C 3.371094 193.039062 2.316406 196.644531 1.878906 200.558594 C 1.65625 202.492188 1.527344 204.511719 1.746094 206.578125 C 2.054688 208.601562 2.535156 210.625 3.328125 212.648438 C 4.867188 216.648438 7.328125 220.515625 11.242188 223.679688 C 15.460938 226.800781 20.957031 229.21875 28.078125 230.453125 Z M 27.992188 230.453125 "/><path style=" stroke:none;fill-rule:nonzero;fill:#000000;fill-opacity:1;" d="M 22.496094 195.0625 C 31.640625 198.753906 37.089844 202.625 41.089844 206.625 C 41.574219 205.304688 42.015625 203.898438 42.324219 202.445312 C 42.71875 200.996094 43.203125 199.5 43.421875 197.964844 C 43.90625 194.886719 43.816406 191.71875 42.761719 188.46875 C 41.75 185.214844 40.257812 181.917969 37.046875 178.488281 C 34.015625 175.058594 29.179688 171.453125 23.285156 167.761719 C 15.023438 162.660156 10.363281 156.59375 8.074219 150.527344 C 6.273438 153.253906 4.515625 156.59375 3.285156 160.332031 C 2.097656 164.066406 1.21875 168.15625 2.054688 172.421875 C 2.710938 176.640625 4.425781 180.949219 7.546875 184.863281 C 10.625 188.773438 15.855469 192.335938 22.496094 195.0625 Z M 22.496094 195.0625 "/><path style=" stroke:none;fill-rule:nonzero;fill:#000000;fill-opacity:1;" d="M 24.605469 159.320312 C 28.695312 162.089844 31.902344 164.726562 34.453125 167.277344 C 36.960938 169.78125 38.761719 172.199219 40.300781 174.574219 C 41.621094 172.15625 43.421875 169.519531 44.476562 166.617188 C 45.621094 163.714844 46.058594 160.59375 45.75 157.210938 C 45.707031 153.867188 44.652344 150.265625 42.324219 146.261719 C 41.179688 144.242188 39.554688 142.085938 37.75 139.886719 C 35.992188 137.691406 33.882812 135.359375 31.332031 132.855469 C 27.816406 129.46875 25.222656 125.996094 23.375 122.613281 C 21.527344 119.226562 20.429688 115.839844 20.210938 112.71875 C 17.527344 114.875 15.285156 117.820312 13.308594 121.203125 C 11.417969 124.632812 9.746094 128.457031 9.394531 132.722656 C 9.132812 141.339844 12.121094 151.011719 24.5625 159.277344 Z M 24.605469 159.320312 "/><path style=" stroke:none;fill-rule:nonzero;fill:#000000;fill-opacity:1;" d="M 34.277344 124.808594 C 41.136719 132.019531 44.785156 137.953125 46.28125 143.097656 C 48.433594 141.164062 50.542969 138.878906 52.214844 136.285156 C 53.886719 133.691406 54.894531 130.65625 55.597656 127.445312 C 56.214844 124.148438 55.90625 120.371094 54.414062 115.886719 C 53.003906 111.445312 50.71875 106.476562 46.71875 100.5 C 43.992188 96.410156 42.148438 92.453125 41.046875 88.714844 C 40.035156 85.066406 39.90625 81.683594 40.257812 78.515625 C 34.234375 81.59375 28.121094 87.617188 25.398438 95.707031 C 23.902344 99.664062 24.035156 104.5 25.265625 109.378906 C 26.671875 114.347656 29.132812 119.445312 34.320312 124.808594 Z M 34.277344 124.808594 "/><path style=" stroke:none;fill-rule:nonzero;fill:#000000;fill-opacity:1;" d="M 51.246094 93.289062 C 56.214844 101.683594 58.808594 108.457031 59.160156 113.820312 C 64.171875 110.875 68.921875 106.566406 71.558594 100.5 C 73.757812 94.035156 73.886719 85.726562 68.566406 72.1875 C 67.644531 69.898438 66.941406 67.660156 66.457031 65.503906 C 66.019531 63.4375 65.753906 61.460938 65.667969 59.570312 C 65.492188 55.789062 66.019531 52.402344 66.984375 49.324219 C 63.820312 50.335938 60.347656 51.875 57.050781 54.03125 C 53.796875 56.183594 51.027344 59.347656 48.875 63 C 44.34375 70.164062 44.125 81.023438 51.246094 93.289062 Z M 51.246094 93.289062 "/><path style=" stroke:none;fill-rule:nonzero;fill:#000000;fill-opacity:1;" d="M 74.679688 66.207031 C 76.21875 70.867188 77.054688 74.78125 77.625 78.429688 C 78.195312 82.078125 78.285156 85.199219 77.976562 87.925781 C 80.703125 87 83.382812 85.640625 85.976562 83.96875 C 88.660156 82.386719 91.078125 80.320312 92.878906 77.460938 C 94.59375 74.472656 96.089844 71.175781 96.703125 66.601562 C 97.363281 62.074219 97.054688 56.226562 95.957031 49.148438 C 94.507812 39.566406 96.132812 32.09375 99.296875 26.464844 C 96.042969 26.859375 92.351562 27.652344 88.703125 29.101562 C 86.855469 29.851562 85.054688 30.730469 83.339844 31.785156 C 81.667969 32.972656 80.128906 34.421875 78.722656 36.003906 C 75.910156 39.214844 73.667969 43.214844 72.699219 48.183594 C 71.910156 53.328125 72.347656 59.347656 74.636719 66.207031 Z M 74.679688 66.207031 "/><path style=" stroke:none;fill-rule:nonzero;fill:#000000;fill-opacity:1;" d="M 103.34375 44.710938 C 104.441406 54.601562 103.519531 61.152344 101.890625 66.558594 C 103.296875 66.339844 104.707031 66.074219 106.15625 65.679688 C 107.652344 65.417969 109.191406 65.066406 110.640625 64.535156 C 113.585938 63.527344 116.3125 61.941406 118.640625 59.4375 C 121.148438 57.238281 123.214844 54.160156 124.796875 49.765625 C 125.585938 47.566406 126.203125 45.019531 126.6875 42.160156 C 127.257812 39.390625 127.652344 36.269531 127.875 32.707031 C 128.53125 23.082031 131.566406 15.695312 136.007812 11.253906 C 132.621094 10.59375 128.972656 10.859375 125.058594 11.519531 C 121.234375 12.265625 117.191406 13.453125 113.761719 16.003906 C 106.992188 21.277344 101.628906 29.9375 103.34375 44.710938 Z M 103.34375 44.710938 "/><path style=" stroke:none;fill-rule:nonzero;fill:#000000;fill-opacity:1;" d="M 135.875 29.761719 C 134.820312 39.652344 132.621094 46.25 129.71875 50.777344 C 132.578125 51.085938 135.699219 51.304688 138.734375 50.863281 C 141.808594 50.46875 144.710938 49.238281 147.65625 47.699219 C 150.558594 46.027344 153.238281 43.390625 155.703125 39.347656 C 158.164062 35.300781 160.492188 30.464844 162.429688 23.476562 C 165.152344 14.023438 169.726562 7.5625 175 4.308594 C 168.757812 1.625 160.230469 1.097656 152.273438 4.089844 C 148.316406 5.628906 144.710938 8.75 141.765625 12.882812 C 138.863281 17.101562 136.621094 22.332031 135.875 29.804688 Z M 135.875 29.761719 "/><path style=" stroke:none;fill-rule:nonzero;fill:#000000;fill-opacity:1;" d="M 170.914062 22.199219 C 167.746094 31.652344 164.230469 37.808594 160.40625 41.589844 C 163.132812 42.554688 166.121094 43.304688 169.199219 43.480469 C 170.738281 43.609375 172.277344 43.390625 173.859375 43.347656 C 175.441406 43.257812 177.023438 42.996094 178.605469 42.46875 C 181.816406 41.414062 185.023438 39.300781 188.277344 35.917969 C 191.53125 32.796875 194.828125 28.269531 198.257812 21.894531 C 200.585938 17.542969 203.226562 14.066406 205.996094 11.296875 C 208.765625 8.792969 211.667969 7.035156 214.613281 5.847656 C 211.796875 4.132812 208.414062 2.109375 204.632812 1.320312 C 200.851562 0.441406 196.675781 0.132812 192.5 0.835938 C 188.320312 1.363281 184.101562 3.5625 180.363281 7.078125 C 176.628906 10.59375 173.332031 15.519531 170.957031 22.199219 Z M 170.914062 22.199219 "/><path style=" stroke:none;fill-rule:nonzero;fill:#000000;fill-opacity:1;" d="M 206.742188 22.507812 C 201.6875 30.730469 196.894531 36.3125 192.324219 39.171875 C 194.785156 40.664062 197.554688 41.984375 200.5 42.777344 C 203.488281 43.390625 206.566406 44.359375 209.90625 43.832031 C 216.679688 42.730469 224.0625 38.90625 233.472656 27.871094 C 239.976562 20.089844 246.574219 16.96875 252.902344 15.828125 C 250.527344 13.496094 247.539062 11.121094 244.109375 9.1875 C 240.636719 7.429688 236.550781 6.375 232.285156 6.199219 C 230.175781 6.109375 227.976562 6.285156 225.777344 6.769531 C 223.578125 7.253906 221.292969 8.351562 219.097656 9.628906 C 214.65625 12.308594 210.390625 16.441406 206.65625 22.507812 Z M 206.742188 22.507812 "/><path style=" stroke:none;fill-rule:nonzero;fill:#000000;fill-opacity:1;" d="M 241.648438 30.464844 C 234.964844 37.28125 229.121094 41.632812 224.019531 43.566406 C 226.085938 45.5 228.546875 47.304688 231.273438 48.753906 C 233.910156 50.425781 236.855469 51.613281 240.242188 51.875 C 241.914062 52.050781 243.757812 51.875 245.648438 51.613281 C 247.496094 51.390625 249.519531 50.953125 251.671875 50.160156 C 255.980469 48.578125 260.949219 45.765625 266.796875 41.324219 C 274.578125 35.609375 281.917969 33.585938 288.378906 33.761719 C 286.535156 31.039062 284.117188 28.136719 281.125 25.585938 C 279.632812 24.355469 278.050781 23.035156 276.203125 22.113281 C 274.355469 21.234375 272.378906 20.488281 270.3125 20.003906 C 266.136719 19.035156 261.609375 18.773438 256.726562 20.398438 C 251.804688 22.113281 246.703125 25.277344 241.691406 30.464844 Z M 241.648438 30.464844 "/><path style=" stroke:none;fill-rule:nonzero;fill:#000000;fill-opacity:1;" d="M 274.050781 45.722656 C 265.871094 51.171875 259.585938 53.589844 254.046875 54.6875 C 257.519531 58.996094 261.519531 64.492188 268.113281 66.207031 C 271.324219 67.21875 274.929688 67.789062 279.589844 67.085938 C 284.203125 66.382812 289.742188 64.625 296.160156 61.8125 C 305 57.898438 312.867188 57.195312 318.933594 58.953125 C 317.921875 55.699219 315.945312 52.578125 313.570312 49.457031 C 311.109375 46.46875 308.25 43.304688 304.296875 41.589844 C 300.382812 39.785156 295.898438 38.773438 290.886719 39.171875 C 285.960938 39.433594 280.027344 41.808594 274.09375 45.765625 Z M 274.050781 45.722656 "/><path style=" stroke:none;fill-rule:nonzero;fill:#000000;fill-opacity:1;" d="M 302.449219 67.570312 C 293.214844 71.261719 286.445312 72.316406 280.996094 71.964844 C 282.183594 74.472656 283.324219 77.503906 285.171875 79.921875 C 286.886719 82.515625 289.4375 84.453125 292.160156 86.34375 C 294.976562 88.144531 298.578125 89.289062 303.285156 89.550781 C 308.03125 89.816406 313.394531 89.550781 320.472656 88.058594 C 325.265625 87.046875 329.617188 86.78125 333.484375 87.132812 C 337.398438 87.484375 340.476562 88.671875 343.289062 90.167969 C 342.675781 83.398438 339.203125 75.570312 332.828125 69.988281 C 329.574219 67.261719 325.132812 65.503906 320.164062 64.84375 C 315.109375 64.230469 309.351562 64.800781 302.449219 67.570312 Z M 302.449219 67.570312 "/><path style=" stroke:none;fill-rule:nonzero;fill:#000000;fill-opacity:1;" d="M 325.574219 94.914062 C 315.8125 96.496094 308.691406 96.320312 303.546875 94.695312 C 304.339844 100.5 306.714844 106.433594 311.375 111.179688 C 313.746094 113.511719 317.351562 115.226562 321.617188 116.632812 C 325.925781 118.039062 331.507812 118.785156 338.761719 118.832031 C 348.875 118.785156 355.597656 121.730469 360.566406 125.820312 C 360.785156 122.523438 360.699219 118.699219 359.953125 114.828125 C 358.984375 111.050781 357.183594 107.269531 354.589844 103.882812 C 353.269531 102.210938 351.730469 100.628906 349.972656 99.265625 C 348.039062 97.992188 345.882812 96.894531 343.421875 96.058594 C 338.542969 94.386719 332.652344 93.816406 325.574219 94.871094 Z M 325.574219 94.914062 "/><path style=" stroke:none;fill-rule:nonzero;fill:#000000;fill-opacity:1;" d="M 342.058594 126.742188 C 332.519531 126.039062 325.398438 124.457031 320.648438 121.820312 C 320.515625 124.675781 320.648438 127.710938 321.398438 130.699219 C 321.835938 133.777344 322.847656 136.8125 324.824219 139.535156 C 325.792969 140.898438 327.066406 142.21875 328.5625 143.449219 C 329.925781 144.722656 331.550781 145.957031 333.53125 147.097656 C 337.488281 149.382812 342.851562 151.320312 350.015625 152.902344 C 359.554688 155.101562 365.710938 159.40625 369.710938 164.464844 C 371.382812 158.175781 372.699219 149.382812 368.566406 141.777344 C 366.589844 137.953125 363.953125 134.347656 359.46875 131.667969 C 354.984375 129.03125 349.269531 127.183594 342.101562 126.742188 Z M 342.058594 126.742188 "/><path style=" stroke:none;fill-rule:nonzero;fill:#000000;fill-opacity:1;" d="M 351.378906 161.296875 C 346.675781 159.933594 342.804688 158.484375 339.640625 156.859375 C 336.476562 155.277344 333.617188 153.605469 331.597656 151.800781 C 330.539062 157.253906 329.046875 163.847656 331.902344 170.003906 C 333.441406 173.082031 335.113281 176.246094 338.671875 179.324219 C 342.101562 182.398438 347.070312 185.476562 353.578125 188.554688 C 362.5 192.6875 368.039062 197.480469 371.207031 202.445312 C 372.570312 199.675781 373.757812 196.511719 374.414062 193.082031 C 374.722656 191.367188 374.941406 189.609375 374.941406 187.765625 C 374.941406 185.875 374.546875 183.675781 374.019531 181.652344 C 372.921875 177.519531 370.808594 173.433594 367.292969 169.871094 C 363.644531 166.308594 358.238281 163.320312 351.335938 161.34375 Z M 351.378906 161.296875 "/><g transform="matrix(1,0,0,1,83,41)"><g clip-path="url(#79ae8554a3)"><g style="fill:#000000;fill-opacity:1;"><g transform="translate(1.26832, 223.812165)"><path style="stroke:none" d="M 76.03125 -48.09375 L 41.375 -48.09375 L 41.375 -44.53125 C 41.375 -41.726562 40.253906 -39.625 38.015625 -38.21875 C 35.773438 -36.820312 33.675781 -36.125 31.71875 -36.125 C 29.894531 -36.125 28.210938 -36.71875 26.671875 -37.90625 C 25.128906 -39.101562 24.359375 -41.03125 24.359375 -43.6875 L 24.359375 -44.734375 C 24.503906 -46.972656 24.644531 -50.125 24.78125 -54.1875 C 24.925781 -58.25 25.066406 -62.726562 25.203125 -67.625 C 25.335938 -72.53125 25.441406 -77.289062 25.515625 -81.90625 C 25.585938 -86.53125 25.625 -90.59375 25.625 -94.09375 C 25.625 -97.59375 25.625 -100.039062 25.625 -101.4375 C 25.625 -102.144531 25.625 -103.128906 25.625 -104.390625 C 25.625 -105.648438 25.550781 -106.976562 25.40625 -108.375 C 25.269531 -108.09375 24.5 -107.179688 23.09375 -105.640625 C 21.695312 -104.097656 20.085938 -102.382812 18.265625 -100.5 C 16.453125 -98.613281 14.703125 -96.96875 13.015625 -95.5625 C 11.335938 -94.164062 10.078125 -93.46875 9.234375 -93.46875 C 8.960938 -93.46875 8.828125 -93.609375 8.828125 -93.890625 C 8.828125 -94.585938 9.664062 -96.195312 11.34375 -98.71875 C 12.882812 -101.09375 14.84375 -104.660156 17.21875 -109.421875 C 19.601562 -114.179688 22.019531 -119.535156 24.46875 -125.484375 C 26.914062 -131.441406 29.222656 -137.535156 31.390625 -143.765625 C 33.566406 -149.992188 35.351562 -155.835938 36.75 -161.296875 C 38.15625 -166.765625 38.859375 -171.390625 38.859375 -175.171875 C 38.859375 -176.285156 38.890625 -176.910156 38.953125 -177.046875 C 39.023438 -177.191406 39.0625 -177.265625 39.0625 -177.265625 C 39.34375 -177.265625 40.847656 -176.878906 43.578125 -176.109375 C 46.304688 -175.335938 49.382812 -174.320312 52.8125 -173.0625 C 56.25 -171.800781 59.257812 -170.363281 61.84375 -168.75 C 64.4375 -167.144531 65.734375 -165.570312 65.734375 -164.03125 C 65.734375 -163.050781 65.28125 -162.140625 64.375 -161.296875 C 63.46875 -160.460938 62.03125 -159.90625 60.0625 -159.625 C 58.945312 -159.476562 58.035156 -158.984375 57.328125 -158.140625 C 56.628906 -157.304688 55.300781 -155 53.34375 -151.21875 L 63.015625 -151.21875 C 64.273438 -151.21875 65.320312 -151.78125 66.15625 -152.90625 L 71.203125 -158.359375 C 71.898438 -158.785156 72.457031 -159 72.875 -159 C 73.4375 -159 74.660156 -158.503906 76.546875 -157.515625 C 78.441406 -156.535156 80.472656 -155.3125 82.640625 -153.84375 C 84.816406 -152.375 86.707031 -150.800781 88.3125 -149.125 C 89.925781 -147.445312 90.734375 -145.90625 90.734375 -144.5 C 90.734375 -143.382812 90.207031 -142.507812 89.15625 -141.875 C 88.101562 -141.25 87.160156 -140.796875 86.328125 -140.515625 C 85.066406 -140.085938 84.082031 -139.734375 83.375 -139.453125 C 82.675781 -139.179688 81.554688 -138.273438 80.015625 -136.734375 C 77.359375 -134.066406 74.066406 -130.910156 70.140625 -127.265625 C 66.222656 -123.628906 62.585938 -120.414062 59.234375 -117.625 L 72.875 -117.625 C 73.4375 -117.625 74.066406 -118.113281 74.765625 -119.09375 C 75.191406 -119.789062 75.859375 -120.734375 76.765625 -121.921875 C 77.671875 -123.109375 78.578125 -124.191406 79.484375 -125.171875 C 80.398438 -126.160156 81.066406 -126.65625 81.484375 -126.65625 C 81.765625 -126.65625 82.742188 -126.195312 84.421875 -125.28125 C 86.109375 -124.375 88 -123.253906 90.09375 -121.921875 C 92.195312 -120.585938 94.019531 -119.222656 95.5625 -117.828125 C 97.101562 -116.429688 97.875 -115.238281 97.875 -114.25 C 97.875 -112.988281 96.820312 -111.519531 94.71875 -109.84375 C 92.90625 -108.445312 91.859375 -107.429688 91.578125 -106.796875 C 91.296875 -106.171875 91.15625 -105.15625 91.15625 -103.75 L 91.15625 -101.03125 C 91.15625 -98.226562 91.1875 -94.375 91.25 -89.46875 C 91.320312 -84.570312 91.425781 -79.425781 91.5625 -74.03125 C 91.707031 -68.644531 91.847656 -63.710938 91.984375 -59.234375 C 92.128906 -54.753906 92.269531 -51.601562 92.40625 -49.78125 L 92.40625 -49.140625 C 92.40625 -46.484375 91.460938 -44.347656 89.578125 -42.734375 C 87.691406 -41.128906 85.625 -40.328125 83.375 -40.328125 C 81.5625 -40.328125 79.882812 -40.957031 78.34375 -42.21875 C 76.800781 -43.476562 76.03125 -45.4375 76.03125 -48.09375 Z M 159.625 -62.171875 C 162 -61.328125 163.1875 -60.347656 163.1875 -59.234375 C 163.1875 -57.828125 161.925781 -56.632812 159.40625 -55.65625 C 158.007812 -55.09375 157.171875 -54.078125 156.890625 -52.609375 C 156.609375 -51.140625 156.46875 -47.742188 156.46875 -42.421875 C 156.46875 -38.921875 156.535156 -35.070312 156.671875 -30.875 C 156.816406 -26.675781 156.957031 -22.6875 157.09375 -18.90625 C 157.238281 -15.125 157.3125 -12.039062 157.3125 -9.65625 L 157.3125 -8.828125 C 157.3125 -3.785156 156.46875 0.273438 154.78125 3.359375 C 153.101562 6.441406 151.003906 8.753906 148.484375 10.296875 C 145.972656 11.835938 143.457031 12.882812 140.9375 13.4375 C 138.414062 14 136.3125 14.28125 134.625 14.28125 C 133.363281 14.28125 132.207031 14 131.15625 13.4375 C 130.113281 12.882812 129.242188 11.90625 128.546875 10.5 C 127.554688 8.539062 125.941406 6.648438 123.703125 4.828125 C 121.460938 3.003906 119.117188 1.289062 116.671875 -0.3125 C 114.222656 -1.925781 112.125 -3.289062 110.375 -4.40625 C 108.625 -5.53125 107.75 -6.300781 107.75 -6.71875 C 107.75 -6.71875 107.78125 -6.753906 107.84375 -6.828125 C 107.914062 -6.898438 108.023438 -6.9375 108.171875 -6.9375 C 108.453125 -6.9375 108.695312 -6.898438 108.90625 -6.828125 C 109.113281 -6.753906 109.359375 -6.71875 109.640625 -6.71875 C 114.117188 -6.019531 117.894531 -5.492188 120.96875 -5.140625 C 124.050781 -4.796875 126.644531 -4.625 128.75 -4.625 C 133.226562 -4.625 135.921875 -5.359375 136.828125 -6.828125 C 137.742188 -8.296875 138.269531 -10.359375 138.40625 -13.015625 C 138.550781 -16.378906 138.625 -19.847656 138.625 -23.421875 C 138.625 -26.992188 138.625 -30.53125 138.625 -34.03125 C 138.625 -41.863281 138.515625 -48.226562 138.296875 -53.125 C 138.085938 -58.03125 137.847656 -61.1875 137.578125 -62.59375 L 128.75 -62.59375 L 128.75 -57.546875 C 128.75 -54.890625 127.628906 -52.789062 125.390625 -51.25 C 123.148438 -49.707031 120.695312 -48.9375 118.03125 -48.9375 C 115.789062 -48.9375 113.832031 -49.566406 112.15625 -50.828125 C 110.476562 -52.085938 109.640625 -54.046875 109.640625 -56.703125 L 109.640625 -57.546875 C 110.054688 -61.328125 110.332031 -65.910156 110.46875 -71.296875 C 110.613281 -76.691406 110.71875 -81.804688 110.78125 -86.640625 C 110.851562 -91.472656 110.890625 -95.007812 110.890625 -97.25 C 110.890625 -99.207031 110.785156 -102.109375 110.578125 -105.953125 C 110.367188 -109.804688 109.914062 -113.484375 109.21875 -116.984375 C 109.21875 -117.265625 109.179688 -117.472656 109.109375 -117.609375 C 109.035156 -117.753906 109 -117.894531 109 -118.03125 C 109 -118.457031 109.210938 -118.671875 109.640625 -118.671875 C 110.472656 -118.671875 112.320312 -118.144531 115.1875 -117.09375 C 118.0625 -116.039062 121.070312 -114.742188 124.21875 -113.203125 C 127.375 -111.660156 129.796875 -110.257812 131.484375 -109 L 132.109375 -108.375 L 160.890625 -108.375 C 161.722656 -108.375 162.488281 -108.863281 163.1875 -109.84375 C 163.46875 -110.257812 164.097656 -111.132812 165.078125 -112.46875 C 166.066406 -113.800781 167.117188 -115.0625 168.234375 -116.25 C 169.359375 -117.4375 170.195312 -118.03125 170.75 -118.03125 C 171.457031 -118.03125 172.820312 -117.503906 174.84375 -116.453125 C 176.875 -115.410156 179.007812 -114.148438 181.25 -112.671875 C 183.5 -111.203125 185.425781 -109.734375 187.03125 -108.265625 C 188.644531 -106.796875 189.453125 -105.570312 189.453125 -104.59375 C 189.453125 -103.195312 188.257812 -101.585938 185.875 -99.765625 C 184.050781 -98.367188 182.960938 -97.25 182.609375 -96.40625 C 182.265625 -95.5625 182.09375 -93.53125 182.09375 -90.3125 C 182.09375 -87.507812 182.160156 -84.179688 182.296875 -80.328125 C 182.441406 -76.484375 182.617188 -72.738281 182.828125 -69.09375 C 183.035156 -65.457031 183.210938 -62.378906 183.359375 -59.859375 L 183.359375 -59.234375 C 183.359375 -56.710938 182.625 -54.785156 181.15625 -53.453125 C 179.6875 -52.117188 178.109375 -51.242188 176.421875 -50.828125 C 174.742188 -50.410156 173.484375 -50.203125 172.640625 -50.203125 C 170.546875 -50.203125 168.65625 -50.832031 166.96875 -52.09375 C 165.289062 -53.351562 164.453125 -55.3125 164.453125 -57.96875 L 164.453125 -62.59375 L 157.734375 -62.59375 C 158.015625 -62.445312 158.363281 -62.375 158.78125 -62.375 C 159.195312 -62.375 159.476562 -62.304688 159.625 -62.171875 Z M 184.625 -151.859375 C 185.738281 -151.859375 187.34375 -151.15625 189.4375 -149.75 C 191.539062 -148.351562 193.710938 -146.640625 195.953125 -144.609375 C 198.191406 -142.578125 200.117188 -140.507812 201.734375 -138.40625 C 203.347656 -136.3125 204.15625 -134.492188 204.15625 -132.953125 C 204.15625 -131.128906 202.753906 -130.21875 199.953125 -130.21875 L 140.9375 -130.21875 C 135.46875 -130.21875 129.515625 -130.078125 123.078125 -129.796875 C 116.640625 -129.515625 109.289062 -128.882812 101.03125 -127.90625 L 100.8125 -127.90625 C 99.695312 -127.90625 98.472656 -128.640625 97.140625 -130.109375 C 95.804688 -131.578125 94.648438 -133.1875 93.671875 -134.9375 C 92.691406 -136.695312 92.203125 -137.992188 92.203125 -138.828125 C 100.460938 -137.710938 108.648438 -136.910156 116.765625 -136.421875 C 124.890625 -135.929688 131.753906 -135.613281 137.359375 -135.46875 L 137.359375 -142.1875 C 137.359375 -145.6875 137.179688 -149.710938 136.828125 -154.265625 C 136.484375 -158.816406 135.75 -163.679688 134.625 -168.859375 C 134.488281 -169.285156 134.421875 -169.847656 134.421875 -170.546875 C 134.421875 -171.109375 134.703125 -171.390625 135.265625 -171.390625 C 136.523438 -171.390625 138.691406 -171.144531 141.765625 -170.65625 C 144.847656 -170.164062 148.175781 -169.5 151.75 -168.65625 C 155.320312 -167.8125 158.367188 -166.828125 160.890625 -165.703125 C 163.410156 -164.585938 164.671875 -163.398438 164.671875 -162.140625 C 164.671875 -160.316406 162.914062 -158.5 159.40625 -156.6875 C 158.851562 -156.40625 158.332031 -155.804688 157.84375 -154.890625 C 157.351562 -153.984375 156.96875 -152.09375 156.6875 -149.21875 C 156.40625 -146.351562 156.265625 -141.769531 156.265625 -135.46875 L 169.703125 -135.46875 C 171.109375 -135.46875 172.160156 -136.097656 172.859375 -137.359375 C 172.992188 -137.640625 173.515625 -138.515625 174.421875 -139.984375 C 175.335938 -141.453125 176.425781 -143.097656 177.6875 -144.921875 C 178.945312 -146.742188 180.207031 -148.351562 181.46875 -149.75 C 182.726562 -151.15625 183.78125 -151.859375 184.625 -151.859375 Z M 161.296875 -102.921875 L 131.6875 -102.921875 C 131.40625 -102.492188 130.847656 -102 130.015625 -101.4375 C 129.453125 -101.019531 129.097656 -100.566406 128.953125 -100.078125 C 128.816406 -99.585938 128.75 -98.992188 128.75 -98.296875 L 128.75 -67.625 L 164.453125 -67.625 L 164.453125 -99.765625 C 164.453125 -101.304688 164.132812 -102.21875 163.5 -102.5 C 162.875 -102.78125 162.140625 -102.921875 161.296875 -102.921875 Z M 113.421875 -47.46875 C 114.398438 -47.46875 116.039062 -46.90625 118.34375 -45.78125 C 120.65625 -44.664062 123.109375 -43.265625 125.703125 -41.578125 C 128.296875 -39.898438 130.5 -38.253906 132.3125 -36.640625 C 134.132812 -35.035156 135.046875 -33.675781 135.046875 -32.5625 C 135.046875 -30.875 133.367188 -29.960938 130.015625 -29.828125 C 129.035156 -29.679688 128.332031 -29.503906 127.90625 -29.296875 C 127.488281 -29.085938 126.859375 -28.351562 126.015625 -27.09375 C 122.378906 -21.632812 117.898438 -16.59375 112.578125 -11.96875 C 107.253906 -7.351562 101.96875 -3.332031 96.71875 0.09375 C 91.46875 3.53125 86.953125 6.160156 83.171875 7.984375 C 79.390625 9.804688 77.148438 10.71875 76.453125 10.71875 C 76.035156 10.71875 75.828125 10.578125 75.828125 10.296875 C 75.828125 9.734375 76.875 8.539062 78.96875 6.71875 C 84.707031 1.957031 90.097656 -3.675781 95.140625 -10.1875 C 100.179688 -16.695312 104.3125 -23.132812 107.53125 -29.5 C 110.75 -35.875 112.5 -41.234375 112.78125 -45.578125 C 112.78125 -46.554688 112.882812 -47.113281 113.09375 -47.25 C 113.3125 -47.394531 113.421875 -47.46875 113.421875 -47.46875 Z M 160.46875 -44.53125 C 160.882812 -44.53125 162.421875 -43.96875 165.078125 -42.84375 C 167.742188 -41.726562 170.929688 -40.082031 174.640625 -37.90625 C 178.347656 -35.738281 182.019531 -33.253906 185.65625 -30.453125 C 189.300781 -27.648438 192.347656 -24.5 194.796875 -21 C 197.253906 -17.5 198.484375 -13.859375 198.484375 -10.078125 C 198.484375 -6.578125 197.46875 -3.707031 195.4375 -1.46875 C 193.40625 0.769531 191.054688 1.890625 188.390625 1.890625 C 186.148438 1.890625 183.976562 0.945312 181.875 -0.9375 C 179.78125 -2.832031 178.175781 -5.953125 177.0625 -10.296875 C 175.65625 -15.335938 173.691406 -20.585938 171.171875 -26.046875 C 168.648438 -31.503906 165.5 -36.546875 161.71875 -41.171875 C 160.601562 -42.429688 160.046875 -43.410156 160.046875 -44.109375 C 160.046875 -44.390625 160.1875 -44.53125 160.46875 -44.53125 Z M 13.4375 -9.234375 C 17.363281 -12.035156 20.65625 -15.253906 23.3125 -18.890625 C 25.96875 -22.535156 27.789062 -26.390625 28.78125 -30.453125 C 29.476562 -33.390625 30.109375 -34.859375 30.671875 -34.859375 C 30.941406 -34.859375 31.632812 -32.898438 32.75 -28.984375 C 33.875 -25.066406 34.4375 -20.375 34.4375 -14.90625 C 34.4375 -7.90625 33.382812 -2.445312 31.28125 1.46875 C 29.1875 5.382812 26.738281 8.113281 23.9375 9.65625 C 21.144531 11.195312 18.765625 11.96875 16.796875 11.96875 C 14.003906 11.96875 11.660156 10.953125 9.765625 8.921875 C 7.878906 6.890625 6.9375 4.546875 6.9375 1.890625 C 6.9375 -0.0664062 7.457031 -1.988281 8.5 -3.875 C 9.550781 -5.769531 11.195312 -7.554688 13.4375 -9.234375 Z M 44.3125 -117.625 L 54.8125 -117.625 C 56.632812 -121.820312 58.242188 -125.878906 59.640625 -129.796875 C 61.046875 -133.722656 62.164062 -137.082031 63 -139.875 C 63.84375 -142.675781 64.265625 -144.359375 64.265625 -144.921875 C 64.265625 -145.617188 63.773438 -145.96875 62.796875 -145.96875 L 50.40625 -145.96875 C 48.300781 -142.1875 46.054688 -138.335938 43.671875 -134.421875 C 41.296875 -130.503906 38.847656 -126.722656 36.328125 -123.078125 C 37.867188 -122.378906 39.234375 -121.570312 40.421875 -120.65625 C 41.617188 -119.75 42.707031 -118.945312 43.6875 -118.25 Z M 40.75 -32.5625 C 40.601562 -33.113281 40.53125 -33.597656 40.53125 -34.015625 C 40.53125 -34.441406 40.53125 -34.722656 40.53125 -34.859375 C 40.53125 -35.421875 40.671875 -35.703125 40.953125 -35.703125 C 41.378906 -35.703125 42.46875 -35.109375 44.21875 -33.921875 C 45.96875 -32.734375 47.890625 -31.015625 49.984375 -28.765625 C 52.085938 -26.523438 53.910156 -23.832031 55.453125 -20.6875 C 56.992188 -17.539062 57.765625 -14.003906 57.765625 -10.078125 C 57.765625 -5.742188 56.78125 -2.382812 54.8125 0 C 52.851562 2.382812 50.828125 3.578125 48.734375 3.578125 C 46.765625 3.578125 45.007812 2.5625 43.46875 0.53125 C 41.9375 -1.5 41.171875 -4.6875 41.171875 -9.03125 C 41.171875 -10.425781 41.203125 -12.242188 41.265625 -14.484375 C 41.335938 -16.734375 41.375 -19.117188 41.375 -21.640625 C 41.375 -23.597656 41.335938 -25.519531 41.265625 -27.40625 C 41.203125 -29.300781 41.03125 -31.019531 40.75 -32.5625 Z M 57.34375 -32.96875 C 56.363281 -34.507812 55.875 -35.5625 55.875 -36.125 C 55.875 -36.40625 56.007812 -36.546875 56.28125 -36.546875 C 57.40625 -36.546875 59.191406 -36.019531 61.640625 -34.96875 C 64.085938 -33.914062 66.640625 -32.410156 69.296875 -30.453125 C 71.960938 -28.492188 74.207031 -26.179688 76.03125 -23.515625 C 77.851562 -20.859375 78.765625 -17.847656 78.765625 -14.484375 C 78.765625 -11.546875 77.992188 -9.128906 76.453125 -7.234375 C 74.910156 -5.347656 73.160156 -4.40625 71.203125 -4.40625 C 69.796875 -4.40625 68.394531 -5.035156 67 -6.296875 C 65.601562 -7.554688 64.550781 -9.660156 63.84375 -12.609375 C 63.425781 -14.421875 62.832031 -16.65625 62.0625 -19.3125 C 61.289062 -21.976562 60.519531 -24.601562 59.75 -27.1875 C 58.976562 -29.78125 58.175781 -31.707031 57.34375 -32.96875 Z M 76.234375 -35.078125 C 75.117188 -36.335938 74.5625 -37.25 74.5625 -37.8125 C 74.5625 -38.226562 75.539062 -38.4375 77.5 -38.4375 C 77.644531 -38.4375 78.835938 -38.257812 81.078125 -37.90625 C 83.316406 -37.5625 85.832031 -36.894531 88.625 -35.90625 C 91.425781 -34.925781 93.910156 -33.421875 96.078125 -31.390625 C 98.253906 -29.367188 99.34375 -26.609375 99.34375 -23.109375 C 99.34375 -20.867188 98.710938 -18.90625 97.453125 -17.21875 C 96.191406 -15.539062 94.582031 -14.703125 92.625 -14.703125 C 91.644531 -14.703125 90.59375 -15.050781 89.46875 -15.75 C 88.351562 -16.445312 87.234375 -17.707031 86.109375 -19.53125 C 85.546875 -20.507812 84.671875 -21.976562 83.484375 -23.9375 C 82.296875 -25.90625 81.070312 -27.9375 79.8125 -30.03125 C 78.550781 -32.132812 77.359375 -33.816406 76.234375 -35.078125 Z M 65.109375 -53.140625 L 76.03125 -53.140625 L 76.03125 -81.90625 L 65.109375 -81.90625 Z M 41.375 -53.140625 L 51.875 -53.140625 L 51.875 -81.90625 L 41.171875 -81.90625 C 41.171875 -76.863281 41.203125 -71.753906 41.265625 -66.578125 C 41.335938 -61.398438 41.375 -56.921875 41.375 -53.140625 Z M 51.25 -112.359375 L 43.6875 -112.359375 L 42.421875 -111.3125 C 41.867188 -110.894531 41.554688 -110.335938 41.484375 -109.640625 C 41.410156 -108.941406 41.375 -108.238281 41.375 -107.53125 C 41.238281 -106.132812 41.171875 -103.578125 41.171875 -99.859375 C 41.171875 -96.148438 41.171875 -91.847656 41.171875 -86.953125 L 51.875 -86.953125 L 51.875 -97.875 C 51.738281 -100.25 51.671875 -102.660156 51.671875 -105.109375 C 51.671875 -107.566406 51.53125 -109.984375 51.25 -112.359375 Z M 73.515625 -112.359375 L 67.625 -112.359375 C 68.882812 -111.804688 69.515625 -111.109375 69.515625 -110.265625 C 69.515625 -109.285156 68.609375 -108.304688 66.796875 -107.328125 C 65.804688 -106.910156 65.3125 -105.929688 65.3125 -104.390625 C 65.175781 -102.285156 65.109375 -99.691406 65.109375 -96.609375 C 65.109375 -93.535156 65.109375 -90.316406 65.109375 -86.953125 L 76.03125 -86.953125 L 76.03125 -109 C 76.03125 -110.6875 75.785156 -111.664062 75.296875 -111.9375 C 74.804688 -112.21875 74.210938 -112.359375 73.515625 -112.359375 Z M 73.515625 -112.359375 "/></g></g></g></g></g></svg>