<svg xmlns="http://www.w3.org/2000/svg" xmlns:xlink="http://www.w3.org/1999/xlink" width="500" zoomAndPan="magnify" viewBox="0 0 375 374.999991" height="500" preserveAspectRatio="xMidYMid meet" version="1.2"><g id="e5f90a21cc"><path style=" stroke:none;fill-rule:nonzero;fill:#000000;fill-opacity:1;" d="M 275.976562 316.898438 C 282.175781 325.789062 280.933594 336.847656 272.886719 345.894531 C 265.734375 353.941406 256.820312 359.582031 246.699219 362.792969 C 202.105469 376.921875 158.484375 375.621094 116.730469 352.875 C 107.078125 347.617188 99.257812 340.046875 96.660156 328.546875 C 96.492188 327.808594 96.101562 326.824219 95.519531 326.507812 C 68.703125 311.867188 51.003906 288.867188 37.417969 262.34375 C 25.671875 239.441406 19.925781 214.953125 18.832031 189.167969 C 16.875 142.832031 30.007812 101.421875 58.992188 65.433594 C 85.328125 32.753906 119.328125 12.5625 161.226562 6.671875 C 232.609375 -3.359375 293.734375 37.804688 321.949219 93.574219 C 357.953125 164.742188 343.484375 253.292969 286.796875 307.140625 C 283.257812 310.5 279.558594 313.691406 275.976562 316.910156 Z M 293.820312 118.472656 C 293.554688 118.492188 293.289062 118.523438 293.023438 118.542969 C 293.023438 121.929688 293.28125 125.335938 292.976562 128.695312 C 292.355469 135.496094 285.941406 142.617188 279.824219 143.660156 C 276.113281 144.300781 269.71875 140.351562 267.347656 135.378906 C 263.746094 127.835938 260.5 120.128906 256.605469 111.347656 C 258.632812 112.792969 260.167969 113.503906 261.160156 114.671875 C 262.734375 116.535156 264.191406 118.582031 265.253906 120.769531 C 266.996094 124.351562 269.671875 124.628906 274.097656 123.359375 C 272.148438 117.992188 271.253906 112.066406 268.175781 107.671875 C 260.6875 96.972656 249.648438 95.601562 237.902344 99.105469 C 228.734375 101.84375 219.742188 105.183594 210.722656 108.402344 C 206.933594 109.75 206.824219 109.867188 205.3125 107.0625 C 214.164062 102.808594 223.117188 98.695312 231.894531 94.242188 C 238.414062 90.933594 244.574219 86.886719 251.136719 83.6875 C 261.75 78.5 277.214844 81.34375 284.152344 92.648438 C 284.742188 93.601562 285.65625 94.351562 286.425781 95.199219 C 280.53125 82.125 270.140625 74.167969 256.753906 71.054688 C 246.640625 68.703125 236.101562 67.808594 225.695312 67.207031 C 214.734375 66.578125 203.6875 67.460938 192.71875 66.980469 C 163.773438 65.710938 135.15625 68.839844 106.617188 72.9375 C 98.492188 74.109375 90.257812 76.394531 85.652344 84.113281 C 76.257812 99.875 70.277344 116.78125 69.253906 135.351562 C 68.605469 147.117188 66.703125 158.644531 61.875 169.671875 C 59.199219 175.789062 58.164062 182.628906 56.394531 189.148438 C 61.933594 178.75 66.617188 168.226562 72.214844 158.222656 C 76.453125 150.640625 82.289062 148.929688 90.21875 151.902344 C 93.0625 152.964844 95.578125 154.972656 98.148438 156.6875 C 107.078125 162.625 116.03125 168.539062 124.828125 174.675781 C 126.480469 175.828125 127.433594 177.992188 128.714844 179.6875 C 128.339844 179.972656 127.976562 180.257812 127.601562 180.542969 C 126.6875 179.894531 125.652344 179.363281 124.855469 178.59375 C 116.367188 170.324219 105.574219 166.691406 94.59375 163.410156 C 90.097656 162.0625 84.992188 163.3125 84.039062 166.324219 C 82.710938 170.53125 81.292969 174.761719 80.558594 179.085938 C 78.835938 189.226562 82.9375 194.859375 93.21875 196.019531 C 98.53125 196.621094 103.972656 196.089844 109.351562 195.992188 C 116.542969 195.855469 122.898438 193.273438 128.792969 189.277344 C 129.902344 188.519531 131.308594 188.203125 132.578125 187.679688 L 133.128906 188.941406 C 129.714844 191.335938 126.304688 193.726562 122.878906 196.101562 C 113.316406 202.714844 103.972656 209.667969 94.132812 215.832031 C 82.554688 223.066406 71.644531 218.585938 64.382812 210.121094 C 62.5625 207.992188 60.78125 205.847656 58.136719 202.707031 C 59.238281 209.371094 60.949219 214.375 65.5625 217.464844 C 70.296875 220.625 75.175781 224.023438 80.507812 225.707031 C 89.324219 228.492188 98.53125 230.019531 107.589844 232.019531 C 126.546875 236.191406 145.78125 237.746094 165.132812 237.402344 C 175.097656 237.226562 185.054688 235.40625 195 235.503906 C 214.558594 235.710938 233.917969 234.125 253.289062 231.671875 C 270.054688 229.554688 285.382812 224.742188 298.503906 213.535156 C 308.285156 205.1875 314.207031 187.988281 309.050781 176.417969 C 302.597656 161.925781 299.027344 146.800781 296.253906 131.351562 C 295.484375 127.058594 294.617188 122.785156 293.800781 118.492188 Z M 158.53125 292.394531 C 161.589844 285.746094 164.472656 279.515625 167.808594 272.277344 C 165.171875 272.277344 163.628906 271.84375 162.515625 272.347656 C 155.316406 275.65625 148.003906 276.679688 140.125 275.042969 C 135.765625 274.136719 133.289062 277.527344 135.492188 281.347656 C 136.859375 283.699219 139.75 285.933594 142.367188 286.582031 C 145.359375 287.320312 148.792969 286.230469 152.148438 285.925781 C 146.273438 294.558594 140.558594 303.339844 127.5625 300.96875 C 135.453125 306.078125 143.117188 306.089844 151.527344 301.078125 C 150.90625 307.695312 149.675781 313.984375 148.367188 320.246094 C 147.9375 322.316406 147.121094 324.324219 146.824219 326.402344 C 146.117188 331.246094 148.78125 334.839844 153.089844 335.164062 C 156.988281 335.457031 160.164062 332.25 160.144531 327.523438 C 160.117188 322.460938 159.710938 317.390625 159.367188 312.332031 C 159.015625 307.25 158.523438 302.167969 158.039062 296.507812 C 159.417969 297.226562 160.242188 297.464844 160.792969 297.984375 C 163.027344 300.121094 165.25 302.277344 167.328125 304.574219 C 169.699219 307.199219 172.214844 309.335938 175.699219 306.707031 C 178 304.964844 177.234375 300.035156 174.417969 297.570312 C 169.855469 293.585938 164.789062 290.925781 158.550781 292.375 Z M 211.539062 298.507812 C 209.71875 299 206.402344 299.867188 203.117188 300.800781 C 193.644531 303.507812 184.167969 306.214844 174.714844 308.984375 C 172.738281 309.5625 171.351562 310.066406 172.519531 313.089844 C 175.394531 320.492188 177.597656 328.152344 180.015625 335.734375 C 181.050781 338.964844 184.335938 340.53125 185.910156 338.441406 C 189.796875 333.292969 195.277344 335.824219 199.800781 334.296875 C 200.824219 333.953125 202.839844 334.226562 203.324219 334.9375 C 206.066406 339.054688 208.566406 337.09375 210.199219 334.433594 C 214.707031 327.101562 219.269531 319.726562 222.921875 311.957031 C 226.058594 305.269531 220.648438 298.390625 211.558594 298.515625 Z M 119.664062 306.03125 C 119.839844 305.902344 120.007812 305.785156 120.183594 305.65625 C 120.015625 304.867188 119.671875 304.070312 119.703125 303.28125 C 120.132812 291.695312 120.378906 280.09375 121.1875 268.527344 C 121.667969 261.671875 121.265625 255.195312 117.871094 249.101562 C 115.738281 245.269531 111.554688 244.285156 108.035156 246.933594 C 103.773438 250.125 101.828125 254.613281 102.101562 259.761719 C 102.859375 273.890625 107.238281 286.949219 114.617188 298.988281 C 116.121094 301.441406 117.96875 303.6875 119.664062 306.03125 Z M 91.203125 296.035156 C 91.585938 295.847656 91.957031 295.652344 92.34375 295.464844 C 87.226562 282.332031 89.636719 269.078125 91.015625 255.835938 C 91.347656 252.605469 92.097656 249.335938 91.898438 246.136719 C 91.554688 240.574219 88.503906 239.292969 84.1875 242.738281 C 79.878906 246.1875 76.738281 250.3125 76.167969 256.1875 C 74.9375 269.019531 79.394531 280.214844 85.742188 290.847656 C 86.980469 292.925781 89.351562 294.332031 91.203125 296.046875 Z M 231.585938 302.929688 C 232.207031 301.933594 232.777344 301.027344 233.339844 300.113281 C 238.445312 291.675781 239.339844 282.164062 239.4375 272.722656 C 239.507812 265.957031 238.632812 259.042969 237 252.488281 C 236.449219 250.292969 232.324219 247.769531 229.699219 247.605469 C 225.929688 247.378906 225.882812 251.277344 226.007812 254.277344 C 226.136719 257.214844 226.316406 260.148438 226.660156 263.0625 C 228.242188 276.175781 229.886719 289.28125 231.578125 302.929688 Z M 262.941406 301.390625 C 275.128906 283.996094 271.675781 264.894531 265.234375 244.5625 C 262.8125 251.75 259.113281 246.351562 255.984375 246.304688 C 258.347656 264.992188 260.679688 283.460938 262.941406 301.390625 Z M 178.925781 273.664062 C 179.851562 276.914062 180.792969 280.15625 181.679688 283.421875 C 182.230469 285.460938 182.367188 287.675781 183.226562 289.558594 C 184.484375 292.332031 185.792969 294.242188 189.953125 292.472656 C 193.074219 291.140625 197.402344 289.429688 200.875 293.832031 C 202.695312 296.132812 205.269531 295.070312 206.453125 292.007812 C 207.976562 288.050781 209.601562 284.132812 211.292969 280.253906 C 213.703125 274.71875 211.234375 270.503906 205.144531 270.988281 C 199.527344 271.441406 194.027344 273.144531 188.417969 273.910156 C 186.699219 274.148438 184.308594 273.664062 183.085938 272.5625 C 180.261719 269.984375 178.953125 270.929688 178.914062 273.664062 Z M 284.082031 294.695312 C 284.632812 294.953125 285.183594 295.207031 285.726562 295.464844 C 288.324219 288.859375 291.382812 282.390625 293.410156 275.617188 C 297.117188 263.25 297.441406 250.753906 292.425781 238.574219 C 291.882812 237.265625 289.53125 235.394531 288.863281 235.699219 C 287.339844 236.371094 285.527344 238.113281 285.300781 239.636719 C 284.808594 243.003906 284.878906 246.558594 285.339844 249.945312 C 287.40625 264.941406 288.65625 279.878906 284.074219 294.707031 Z M 310.753906 266.890625 C 311.15625 266.992188 311.558594 267.097656 311.953125 267.195312 C 312.917969 265.40625 313.734375 263.515625 314.886719 261.851562 C 322.183594 251.363281 323.628906 240.289062 318.359375 228.53125 C 317.109375 225.746094 315.898438 221.789062 312.148438 223.039062 C 310.429688 223.617188 308.914062 227.597656 308.933594 230.007812 C 308.972656 235.207031 310.417969 240.375 310.664062 245.585938 C 311 252.675781 310.742188 259.785156 310.742188 266.882812 Z M 74.339844 292.953125 C 74.140625 291.664062 74.054688 290.875 73.886719 290.097656 C 71.9375 280.882812 69.832031 271.6875 68.074219 262.433594 C 66.941406 256.535156 66.390625 250.519531 65.367188 244.601562 C 65.191406 243.566406 63.949219 242.710938 63.203125 241.773438 C 62.296875 242.601562 60.921875 243.273438 60.574219 244.285156 C 59.652344 247.023438 58.824219 249.878906 58.558594 252.753906 C 57.09375 268.457031 63.25 281.347656 74.347656 292.953125 Z M 203.105469 263.042969 C 203.15625 263.375 203.207031 263.722656 203.253906 264.054688 C 204.238281 264.054688 205.339844 264.34375 206.1875 263.996094 C 208.152344 263.191406 211.398438 262.265625 211.566406 261.035156 C 211.84375 259.085938 210.445312 256.4375 208.949219 254.851562 C 207.800781 253.640625 205.289062 252.949219 203.558594 253.195312 C 198.917969 253.875 194.410156 255.492188 189.765625 256.140625 C 185.554688 256.730469 181.226562 256.503906 176.957031 256.722656 C 175.492188 256.800781 174.035156 257.164062 172.578125 257.390625 C 172.824219 258.886719 172.621094 260.726562 173.417969 261.832031 C 176.296875 265.839844 180.675781 265.808594 185.003906 265.316406 C 191.054688 264.628906 197.078125 263.800781 203.117188 263.023438 Z M 57.113281 284.457031 C 57.269531 284.015625 57.507812 283.699219 57.449219 283.460938 C 53.355469 268.015625 49.273438 252.554688 45.042969 237.148438 C 44.617188 235.621094 43.332031 234.332031 41.921875 232.125 C 37.535156 253.175781 44.757812 269.519531 57.101562 284.457031 Z M 162.710938 267.71875 C 159.160156 261.859375 156.011719 256.820312 153.023438 251.679688 C 151.300781 248.726562 148.773438 247.359375 145.664062 248.429688 C 142.132812 249.660156 143.007812 252.890625 143.628906 255.519531 C 145.113281 261.839844 152.796875 268.449219 158.972656 268.742188 C 160.253906 268.800781 161.570312 268.042969 162.710938 267.710938 Z M 162.710938 267.71875 "/><path style=" stroke:none;fill-rule:nonzero;fill:#000000;fill-opacity:1;" d="M 230.4375 183.222656 C 232.835938 180.101562 234.933594 176.671875 237.6875 173.917969 C 243.886719 167.722656 249.136719 160.261719 257.933594 157.285156 C 267.515625 154.046875 276.871094 153.832031 285.402344 160.289062 C 289.640625 163.5 294.441406 166.285156 297.84375 170.246094 C 309.226562 183.488281 308.753906 194.671875 296.429688 207.027344 C 287.199219 216.285156 275.453125 218.429688 262.882812 217.464844 C 253.101562 216.71875 246.226562 209.6875 237.835938 205.925781 C 233.132812 203.820312 228.46875 201.59375 223.894531 199.222656 C 221.640625 198.050781 219.613281 196.433594 217.488281 195.015625 C 217.6875 194.515625 217.894531 194.023438 218.089844 193.519531 C 219.417969 193.382812 220.816406 192.890625 222.066406 193.144531 C 229.886719 194.75 237.746094 196.246094 245.449219 198.304688 C 253.761719 200.511719 269.257812 195.183594 273.261719 188.28125 C 277.097656 181.644531 276.527344 173.226562 271.933594 168.628906 C 267.171875 163.875 258.011719 162.515625 251.980469 166.671875 C 247.210938 169.957031 243.292969 174.476562 239.015625 178.476562 C 236.742188 180.59375 234.507812 182.757812 232.265625 184.894531 C 231.65625 184.332031 231.035156 183.773438 230.425781 183.222656 Z M 230.4375 183.222656 "/><path style=" stroke:none;fill-rule:nonzero;fill:#000000;fill-opacity:1;" d="M 146.992188 104.464844 C 145.191406 104.277344 143.636719 104.304688 142.179688 103.941406 C 132.933594 101.667969 123.746094 99.167969 114.457031 97.070312 C 111.320312 96.359375 107.945312 96.28125 104.71875 96.507812 C 98.660156 96.949219 90.570312 105.25 90.246094 111.058594 C 90.207031 111.71875 90.9375 112.417969 91.488281 113.421875 C 95.726562 110.449219 99.78125 107.605469 103.84375 104.75 C 104.238281 105.183594 104.621094 105.617188 105.011719 106.046875 C 104.511719 106.875 104.214844 107.988281 103.488281 108.472656 C 96.167969 113.433594 91.664062 120.53125 88.25 128.4375 C 86.941406 131.480469 85.316406 133.933594 81.570312 133.914062 C 77.960938 133.894531 74.507812 129.914062 74.359375 124.882812 C 74.269531 121.8125 74.378906 118.535156 75.363281 115.679688 C 78.292969 107.074219 80.683594 98.042969 85.152344 90.257812 C 91.347656 79.445312 109.292969 77.023438 119.582031 84.300781 C 128.476562 90.589844 137.480469 96.734375 146.421875 102.976562 C 146.628906 103.125 146.65625 103.539062 146.992188 104.425781 Z M 146.992188 104.464844 "/><path style=" stroke:none;fill-rule:nonzero;fill:#000000;fill-opacity:1;" d="M 143.410156 130.476562 C 143.363281 141.433594 135.53125 148.90625 124.15625 148.839844 C 114.125 148.78125 105.691406 140.195312 105.851562 130.191406 C 106.015625 119.851562 115 111.109375 125.269531 111.277344 C 135.738281 111.445312 143.449219 119.605469 143.402344 130.476562 Z M 143.410156 130.476562 "/><path style=" stroke:none;fill-rule:nonzero;fill:#000000;fill-opacity:1;" d="M 235.867188 145.984375 C 226.058594 146.003906 218.199219 138.105469 218.128906 128.164062 C 218.050781 117.628906 226.558594 109.089844 237.117188 109.109375 C 247.425781 109.121094 255.464844 117.144531 255.53125 127.511719 C 255.613281 138.589844 247.75 145.964844 235.867188 145.984375 Z M 235.867188 145.984375 "/><path style=" stroke:none;fill-rule:nonzero;fill:#000000;fill-opacity:1;" d="M 226.265625 223.945312 C 224.613281 222.25 222.832031 220.664062 221.367188 218.824219 C 220.492188 217.730469 220.105469 216.246094 219.507812 214.933594 C 219.878906 214.746094 220.265625 214.570312 220.636719 214.382812 C 216.792969 211.339844 212.667969 208.59375 209.207031 205.175781 C 206.589844 202.589844 204.003906 201.96875 200.5 202.183594 C 186.964844 203.011719 173.40625 203.679688 159.851562 204.113281 C 156.652344 204.210938 154.507812 205.136719 152.246094 207.421875 C 148.960938 210.75 145.023438 213.4375 141.375 216.390625 C 141.070312 216.371094 140.765625 216.351562 140.449219 216.34375 C 129.039062 222.015625 116.574219 222.488281 104.257812 223.570312 C 102.523438 223.726562 100.695312 222.871094 98.972656 221.402344 C 103.441406 220.527344 107.867188 219.246094 112.371094 218.84375 C 127.414062 217.484375 140.519531 212.285156 150.925781 200.925781 C 152.226562 199.507812 154.5 198.355469 156.398438 198.234375 C 172.078125 197.3125 187.769531 196.671875 203.460938 195.921875 C 205.921875 195.804688 207.957031 196.019531 208.636719 199.101562 C 208.871094 200.15625 210.269531 201.011719 211.242188 201.839844 C 222.902344 211.773438 236.328125 217.910156 251.914062 220.230469 C 245.980469 223.394531 244.839844 223.304688 228.46875 219.582031 C 230.851562 221.285156 233.21875 222.980469 235.828125 224.839844 C 235.296875 227.578125 233.730469 228.324219 231.054688 226.730469 C 229.402344 225.753906 227.761719 224.761719 226.117188 223.777344 L 226.273438 223.933594 Z M 226.265625 223.945312 "/><path style=" stroke:none;fill-rule:nonzero;fill:#000000;fill-opacity:1;" d="M 182.320312 101.363281 C 184.03125 99.285156 185.8125 97.265625 187.433594 95.128906 C 190.886719 90.582031 194.480469 86.109375 197.617188 81.34375 C 202.347656 74.148438 209.089844 70.289062 217.292969 68.917969 C 222.4375 68.0625 226.078125 70.484375 227.710938 74.964844 C 229.757812 80.566406 228.832031 85.304688 224.414062 88.058594 C 221.730469 89.734375 218.503906 90.757812 215.375 91.496094 C 209.660156 92.855469 203.746094 93.464844 198.089844 95 C 194.890625 95.878906 192.03125 97.976562 189.019531 99.550781 C 187.121094 100.542969 185.230469 101.578125 183.34375 102.601562 C 183 102.1875 182.652344 101.777344 182.300781 101.363281 Z M 182.320312 101.363281 "/><path style=" stroke:none;fill-rule:nonzero;fill:#000000;fill-opacity:1;" d="M 171.253906 101.214844 C 169.746094 100.820312 168.144531 100.832031 167.128906 100.0625 C 162.082031 96.222656 156.398438 94.972656 150.179688 94.863281 C 143.902344 94.765625 138.867188 91.632812 135.078125 86.859375 C 131.300781 82.09375 131.476562 75.683594 134.929688 72.445312 C 138.394531 69.195312 145.398438 69.53125 149.757812 73.519531 C 152.402344 75.941406 154.742188 78.746094 156.910156 81.621094 C 161.601562 87.8125 166.105469 94.164062 171.242188 101.214844 Z M 171.253906 101.214844 "/><path style=" stroke:none;fill-rule:nonzero;fill:#000000;fill-opacity:1;" d="M 176.199219 176.527344 C 174.832031 173.523438 173.367188 170.558594 172.117188 167.507812 C 168.496094 158.675781 165.144531 157.777344 159.566406 165.539062 C 156.308594 170.058594 155.117188 176.09375 153.128906 181.5 C 152.589844 182.976562 153.003906 184.933594 152.1875 186.144531 C 150.238281 189.050781 148.378906 193.066406 144.019531 191.925781 C 139.503906 190.753906 140.074219 186.441406 140.125 182.886719 C 140.253906 172.707031 151.636719 157.601562 161.296875 154.933594 C 165.761719 153.703125 170.042969 154.402344 172.394531 158.824219 C 174.753906 163.261719 176.59375 168 178.402344 172.707031 C 178.777344 173.679688 178.03125 175.097656 177.804688 176.308594 C 177.273438 176.386719 176.742188 176.457031 176.210938 176.535156 Z M 176.199219 176.527344 "/><path style=" stroke:none;fill-rule:nonzero;fill:#000000;fill-opacity:1;" d="M 183.933594 176.703125 C 180.894531 165.851562 192.375 151.675781 201.316406 153.960938 C 205.605469 155.050781 209.785156 158.921875 212.6875 162.585938 C 217.273438 168.363281 218.511719 175.582031 217.507812 182.957031 C 217.066406 186.222656 214.960938 188.902344 211.585938 187.90625 C 209.472656 187.277344 207.121094 184.757812 206.421875 182.582031 C 205.144531 178.601562 205.054688 174.242188 204.355469 170.066406 C 204.121094 168.640625 203.71875 167.183594 203.066406 165.902344 C 199.792969 159.492188 193.179688 159.117188 189.519531 165.242188 C 187.574219 168.492188 186.167969 172.074219 183.941406 176.714844 Z M 183.933594 176.703125 "/><path style=" stroke:none;fill-rule:nonzero;fill:#000000;fill-opacity:1;" d="M 202.644531 229.722656 C 202.054688 230.480469 201.632812 231.535156 200.914062 231.800781 C 200.15625 232.078125 198.757812 231.9375 198.257812 231.40625 C 193.347656 226.167969 188.515625 220.84375 183.824219 215.40625 C 183.332031 214.835938 183.863281 213.378906 183.921875 212.335938 C 184.828125 212.40625 186.078125 212.109375 186.589844 212.589844 C 191.566406 217.289062 196.457031 222.09375 201.285156 226.9375 C 201.917969 227.566406 202.125 228.628906 202.644531 229.722656 Z M 202.644531 229.722656 "/><path style=" stroke:none;fill-rule:nonzero;fill:#000000;fill-opacity:1;" d="M 226.109375 223.785156 C 225.851562 226.878906 223.945312 228.789062 221.21875 227.371094 C 213.359375 223.285156 206.195312 218.253906 203.125 208.671875 C 204.238281 209.117188 205.683594 209.265625 206.421875 210.0625 C 212.039062 216.136719 218.445312 221.03125 226.253906 223.933594 C 226.253906 223.933594 226.109375 223.785156 226.109375 223.785156 Z M 226.109375 223.785156 "/><path style=" stroke:none;fill-rule:nonzero;fill:#000000;fill-opacity:1;" d="M 159.574219 210.476562 C 159.09375 211.785156 158.886719 213.300781 158.078125 214.355469 C 154.203125 219.414062 150.328125 224.496094 146.058594 229.222656 C 145.0625 230.324219 142.566406 230.066406 140.765625 230.441406 C 141.511719 229.074219 142.0625 227.527344 143.046875 226.367188 C 146.863281 221.875 150.820312 217.503906 154.734375 213.09375 C 155.777344 211.921875 156.859375 210.78125 157.921875 209.617188 Z M 159.574219 210.476562 "/><path style=" stroke:none;fill-rule:nonzero;fill:#000000;fill-opacity:1;" d="M 168.617188 213.261719 C 164.621094 218.261719 160.714844 223.34375 156.554688 228.199219 C 155.886719 228.976562 154.085938 228.777344 152.816406 229.023438 C 152.875 227.726562 152.421875 226.011719 153.082031 225.183594 C 156.496094 220.882812 160.125 216.726562 163.863281 212.691406 C 164.613281 211.882812 166.144531 211.792969 167.316406 211.371094 C 167.75 212 168.183594 212.632812 168.617188 213.25 Z M 168.617188 213.261719 "/><path style=" stroke:none;fill-rule:nonzero;fill:#000000;fill-opacity:1;" d="M 195.550781 210.976562 C 201.484375 216.027344 207.191406 220.8125 212.769531 225.746094 C 213.367188 226.277344 213.257812 227.617188 213.476562 228.582031 C 212.601562 228.710938 211.3125 229.28125 210.917969 228.90625 C 205.496094 223.777344 200.195312 218.527344 194.941406 213.222656 C 194.6875 212.964844 195.296875 211.863281 195.550781 210.976562 Z M 195.550781 210.976562 "/><path style=" stroke:none;fill-rule:nonzero;fill:#000000;fill-opacity:1;" d="M 178.128906 210.5625 C 177.707031 211.773438 177.597656 213.242188 176.820312 214.148438 C 173.230469 218.339844 169.511719 222.425781 165.683594 226.40625 C 165.101562 227.007812 163.734375 226.847656 162.730469 227.035156 C 162.664062 225.875 162.0625 224.191406 162.613281 223.617188 C 167.199219 218.914062 172 214.402344 176.730469 209.84375 C 177.203125 210.082031 177.667969 210.328125 178.136719 210.5625 Z M 178.128906 210.5625 "/><path style=" stroke:none;fill-rule:nonzero;fill:#000000;fill-opacity:1;" d="M 140.460938 216.34375 C 140.765625 216.363281 141.078125 216.382812 141.382812 216.390625 C 142.496094 216.3125 143.617188 216.234375 144.738281 216.164062 C 140.105469 221.421875 139.378906 229.820312 132.058594 231.773438 L 130.671875 230.570312 C 133.9375 225.835938 137.203125 221.089844 140.460938 216.351562 Z M 140.460938 216.34375 "/><path style=" stroke:none;fill-rule:nonzero;fill:#000000;fill-opacity:1;" d="M 199.792969 330.347656 L 199.792969 323.59375 C 201.816406 323.140625 203.953125 322.964844 205.820312 322.167969 C 207.425781 321.476562 208.722656 320.089844 210.160156 319.007812 C 208.457031 318.121094 206.84375 316.917969 205.035156 316.457031 C 203.570312 316.082031 201.867188 316.59375 200.175781 316.722656 C 199.527344 314.023438 198.925781 311.542969 198.355469 309.21875 L 216.644531 309.21875 C 217.066406 309.742188 217.480469 310.261719 217.902344 310.785156 C 214.027344 317.027344 210.335938 323.40625 206.097656 329.394531 C 205.300781 330.507812 202.261719 330.023438 199.800781 330.339844 Z M 199.792969 330.347656 "/><path style=" stroke:none;fill-rule:nonzero;fill:#000000;fill-opacity:1;" d="M 183.421875 321.0625 C 182.203125 318.691406 180.8125 315.984375 179.121094 312.695312 C 182.949219 311.820312 186.5 311.160156 189.945312 310.144531 C 192.050781 309.523438 194.292969 309.03125 194.292969 311.800781 C 194.292969 313.976562 193.367188 316.929688 191.785156 318.148438 C 189.667969 319.773438 186.519531 320.058594 183.421875 321.054688 Z M 183.421875 321.0625 "/><path style=" stroke:none;fill-rule:nonzero;fill:#000000;fill-opacity:1;" d="M 184.917969 325.050781 L 194.175781 325.050781 C 192.785156 327.40625 192.109375 330.242188 190.59375 330.800781 C 185.683594 332.632812 185.753906 328.332031 184.917969 325.050781 Z M 184.917969 325.050781 "/><path style=" stroke:none;fill-rule:nonzero;fill:#000000;fill-opacity:1;" d="M 206.855469 275.980469 C 201.769531 287.066406 201.484375 287.363281 192.5625 286.542969 C 187.328125 286.0625 190.042969 280.617188 186.324219 277.359375 C 193.789062 276.855469 199.859375 276.453125 206.855469 275.980469 Z M 206.855469 275.980469 "/></g></svg>