<svg xmlns="http://www.w3.org/2000/svg" xmlns:xlink="http://www.w3.org/1999/xlink" width="500" zoomAndPan="magnify" viewBox="0 0 375 374.999991" height="500" preserveAspectRatio="xMidYMid meet" version="1.2"><defs><clipPath id="de12e94c18"><path d="M 112.5 134.660156 L 262.5 134.660156 L 262.5 227.660156 L 112.5 227.660156 Z M 112.5 134.660156 "/></clipPath></defs><g id="22f54c1b67"><g clip-rule="nonzero" clip-path="url(#de12e94c18)"><path style=" stroke:none;fill-rule:nonzero;fill:#406e89;fill-opacity:1;" d="M 261.550781 135.351562 C 261.066406 134.9375 260.515625 134.660156 259.898438 134.660156 L 237.75 134.800781 C 234.378906 134.800781 231.421875 136.3125 229.496094 138.71875 C 227.570312 136.3125 224.542969 134.800781 221.238281 134.800781 L 199.089844 134.800781 C 197.785156 134.800781 196.683594 135.898438 196.683594 137.207031 C 196.683594 139.203125 196.957031 141.128906 197.578125 142.917969 C 198.679688 146.492188 200.878906 149.65625 203.835938 151.996094 C 206.726562 154.335938 210.234375 155.710938 213.878906 156.054688 C 214.707031 156.125 215.394531 156.46875 215.945312 157.015625 C 216.148438 157.222656 216.289062 157.429688 216.492188 157.636719 C 217.25 158.601562 217.527344 159.90625 217.179688 161.214844 C 216.835938 162.453125 216.011719 163.484375 214.84375 163.964844 C 213.125 164.652344 211.195312 164.722656 209.410156 163.964844 C 207.894531 163.347656 206.65625 162.3125 205.902344 160.871094 C 196.546875 144.773438 179.28125 134.800781 160.707031 134.800781 C 159.882812 134.800781 159.054688 134.800781 158.300781 134.867188 C 148.945312 135.28125 139.933594 138.238281 132.160156 143.328125 C 125.488281 147.664062 119.917969 153.578125 115.859375 160.457031 C 115.03125 161.144531 114.207031 161.902344 113.449219 162.589844 C 113.449219 162.589844 113.449219 162.65625 113.382812 162.65625 C 113.3125 162.726562 113.246094 162.863281 113.105469 162.933594 C 113.039062 163.003906 113.039062 163.070312 113.039062 163.140625 C 112.96875 163.207031 112.96875 163.277344 112.902344 163.347656 C 112.902344 163.414062 112.832031 163.484375 112.832031 163.550781 C 112.832031 163.621094 112.761719 163.691406 112.761719 163.757812 C 112.761719 163.894531 112.761719 163.964844 112.695312 164.101562 C 112.761719 164.238281 112.761719 164.238281 112.761719 164.308594 C 112.761719 199.253906 141.171875 227.660156 176.117188 227.660156 C 190.078125 227.660156 203.285156 223.191406 214.359375 214.796875 C 215.394531 213.972656 215.597656 212.527344 214.84375 211.429688 C 214.015625 210.394531 212.574219 210.191406 211.472656 210.945312 C 201.222656 218.71875 188.980469 222.847656 176.117188 222.847656 C 144.128906 222.914062 118.128906 197.121094 117.578125 165.273438 C 118.058594 164.789062 118.609375 164.308594 119.230469 163.894531 C 121.636719 161.96875 124.386719 160.59375 127.347656 159.632812 C 127.207031 161.144531 127.140625 162.65625 127.140625 164.238281 C 127.140625 191.273438 149.152344 213.285156 176.183594 213.285156 C 185.472656 213.285156 194.550781 210.671875 202.390625 205.648438 C 203.492188 204.960938 203.835938 203.449219 203.148438 202.347656 C 202.460938 201.246094 200.949219 200.902344 199.847656 201.589844 C 192.761719 206.0625 184.578125 208.46875 176.183594 208.46875 C 151.765625 208.46875 131.886719 188.589844 131.886719 164.171875 C 131.886719 162.246094 132.023438 160.386719 132.230469 158.53125 C 135.394531 158.1875 138.625 158.460938 141.722656 159.289062 C 141.515625 160.871094 141.378906 162.519531 141.378906 164.171875 C 141.378906 164.171875 141.378906 164.171875 141.378906 164.238281 C 141.378906 183.433594 156.992188 198.976562 176.117188 198.976562 C 182.238281 198.976562 188.222656 197.394531 193.519531 194.300781 C 194.6875 193.613281 195.03125 192.167969 194.414062 191.066406 C 193.726562 189.898438 192.28125 189.554688 191.179688 190.171875 C 186.640625 192.785156 181.480469 194.230469 176.183594 194.230469 C 159.675781 194.230469 146.195312 180.816406 146.195312 164.238281 C 146.195312 163.207031 146.261719 162.109375 146.332031 161.074219 C 148.808594 162.3125 151.078125 163.964844 153.070312 165.960938 C 154.035156 166.921875 155.066406 167.816406 156.167969 168.640625 C 158.230469 177.996094 166.417969 184.738281 176.117188 184.738281 C 180.449219 184.738281 184.644531 183.363281 188.152344 180.816406 C 189.183594 180.0625 189.460938 178.546875 188.703125 177.515625 C 187.945312 176.484375 186.433594 176.210938 185.402344 176.964844 C 182.71875 178.960938 179.484375 179.992188 176.183594 179.992188 C 170.542969 179.992188 165.589844 177.035156 162.839844 172.496094 C 166.625 174.078125 170.613281 174.902344 174.671875 174.902344 C 178.59375 174.902344 182.445312 174.144531 186.160156 172.632812 C 188.359375 171.738281 190.421875 170.570312 192.347656 169.191406 C 192.96875 175.589844 194.824219 181.78125 197.851562 187.421875 C 200.261719 191.890625 203.355469 195.949219 207 199.527344 C 210.714844 203.105469 214.910156 206.0625 219.519531 208.332031 C 226.261719 211.632812 233.484375 213.285156 241.050781 213.285156 C 242.015625 213.285156 242.90625 212.734375 243.25 211.839844 C 243.597656 210.945312 243.390625 209.914062 242.703125 209.226562 C 237.957031 204.480469 234.378906 198.910156 231.972656 192.71875 C 230.25 188.246094 229.21875 183.570312 228.945312 178.824219 C 228.875 177.515625 227.773438 176.554688 226.398438 176.621094 C 225.09375 176.691406 224.058594 177.859375 224.199219 179.167969 C 224.542969 184.394531 225.640625 189.554688 227.5 194.507812 C 229.425781 199.460938 232.039062 204.066406 235.339844 208.265625 C 230.527344 207.644531 225.917969 206.269531 221.582031 204.136719 C 217.457031 202.074219 213.605469 199.460938 210.304688 196.226562 C 207 192.992188 204.179688 189.347656 202.046875 185.289062 C 198.609375 178.890625 196.820312 171.738281 196.820312 164.445312 C 196.820312 163.828125 196.613281 163.207031 196.132812 162.726562 C 195.652344 162.246094 194.964844 162.039062 194.34375 162.039062 C 194.34375 162.039062 194.277344 162.039062 194.277344 162.039062 C 193.382812 162.039062 192.625 162.519531 192.210938 163.207031 C 189.875 165.410156 187.257812 167.128906 184.300781 168.296875 C 176.253906 171.601562 166.828125 170.5 159.746094 165.476562 C 158.574219 164.652344 157.472656 163.691406 156.511719 162.726562 C 153.347656 159.5625 149.632812 157.222656 145.4375 155.640625 C 145.4375 155.640625 145.367188 155.640625 145.367188 155.574219 C 145.367188 155.574219 145.300781 155.574219 145.300781 155.574219 C 140.347656 153.785156 134.980469 153.304688 129.753906 154.265625 C 129.753906 154.265625 129.753906 154.265625 129.683594 154.265625 C 129.617188 154.265625 129.617188 154.265625 129.546875 154.265625 C 128.238281 154.472656 126.933594 154.816406 125.695312 155.230469 C 128.378906 152.203125 131.472656 149.589844 134.84375 147.386719 C 141.859375 142.640625 150.046875 140.027344 158.507812 139.613281 C 159.261719 139.546875 159.949219 139.546875 160.707031 139.546875 C 177.558594 139.546875 193.242188 148.625 201.636719 163.207031 C 202.941406 165.546875 205.074219 167.335938 207.550781 168.367188 C 210.441406 169.535156 213.742188 169.535156 216.5625 168.367188 C 219.109375 167.335938 220.964844 165.132812 221.722656 162.453125 C 222.410156 159.699219 221.859375 156.878906 220.140625 154.746094 C 219.863281 154.402344 219.589844 154.058594 219.246094 153.714844 C 217.9375 152.410156 216.148438 151.582031 214.222656 151.378906 C 211.472656 151.101562 208.925781 150.070312 206.726562 148.351562 C 204.523438 146.5625 202.875 144.222656 202.046875 141.539062 C 201.84375 140.921875 201.703125 140.300781 201.566406 139.683594 L 221.171875 139.683594 C 224.402344 139.683594 227.085938 142.296875 227.085938 145.597656 C 227.085938 146.90625 228.1875 148.007812 229.496094 148.007812 C 230.800781 148.007812 231.902344 146.90625 231.902344 145.597656 C 231.902344 142.367188 234.515625 139.683594 237.816406 139.683594 L 257.285156 139.476562 C 256.183594 145.667969 251.023438 150.621094 244.558594 151.171875 C 242.90625 151.308594 241.324219 151.925781 240.085938 152.960938 C 236.71875 155.78125 234.792969 159.90625 234.722656 164.308594 L 234.722656 164.515625 C 234.722656 164.585938 234.722656 164.652344 234.722656 164.722656 C 234.722656 164.859375 234.722656 165.066406 234.722656 165.203125 C 234.722656 165.273438 234.722656 165.273438 234.722656 165.339844 C 234.722656 165.476562 234.722656 165.683594 234.722656 165.824219 C 234.722656 165.890625 234.722656 165.890625 234.722656 165.960938 C 234.722656 166.234375 234.722656 166.441406 234.722656 166.714844 C 234.722656 166.714844 234.722656 166.855469 234.722656 166.855469 C 234.722656 167.128906 234.722656 167.335938 234.722656 167.609375 C 234.722656 167.953125 234.652344 168.296875 234.652344 168.710938 C 234.652344 169.125 234.585938 169.605469 234.515625 170.019531 C 234.515625 170.226562 234.445312 170.429688 234.445312 170.636719 L 234.378906 170.980469 C 234.378906 171.257812 234.308594 171.53125 234.308594 171.738281 C 234.242188 172.21875 234.171875 172.699219 234.101562 173.183594 C 234.035156 173.59375 233.964844 174.007812 233.898438 174.351562 L 233.828125 174.695312 C 233.828125 174.765625 233.828125 174.765625 233.828125 174.832031 C 233.757812 175.175781 233.691406 175.589844 233.621094 175.933594 C 233.621094 175.933594 233.621094 176.003906 233.621094 176.070312 L 233.621094 176.210938 C 233.621094 176.277344 233.554688 176.347656 233.554688 176.414062 C 233.484375 176.621094 233.484375 176.828125 233.414062 177.035156 C 233.070312 177.515625 232.933594 178.136719 233.003906 178.683594 C 233.003906 178.753906 233.003906 178.824219 233.003906 178.890625 C 233.003906 178.960938 233.003906 178.960938 233.003906 179.03125 C 233.003906 179.167969 233.003906 179.234375 233.003906 179.375 C 233.003906 179.441406 233.070312 179.578125 233.070312 179.648438 C 233.070312 179.71875 233.070312 179.71875 233.140625 179.785156 C 233.207031 179.855469 233.207031 179.992188 233.277344 180.0625 C 233.277344 180.128906 233.347656 180.128906 233.347656 180.199219 C 233.414062 180.265625 233.484375 180.335938 233.554688 180.472656 C 233.554688 180.472656 233.621094 180.542969 233.621094 180.542969 C 233.691406 180.613281 233.757812 180.679688 233.828125 180.75 C 233.828125 180.75 233.898438 180.816406 233.898438 180.816406 C 233.964844 180.886719 234.035156 180.957031 234.171875 180.957031 C 234.242188 180.957031 234.242188 181.023438 234.308594 181.023438 C 234.378906 181.09375 234.515625 181.09375 234.585938 181.160156 C 234.652344 181.160156 234.652344 181.160156 234.722656 181.230469 C 234.792969 181.230469 234.929688 181.300781 234.996094 181.300781 C 234.996094 181.300781 235.066406 181.300781 235.066406 181.300781 C 235.136719 181.300781 235.203125 181.300781 235.203125 181.300781 C 235.273438 181.300781 235.273438 181.300781 235.339844 181.300781 C 235.890625 181.300781 236.375 181.09375 236.785156 180.816406 C 236.785156 180.816406 236.855469 180.816406 236.855469 180.75 C 236.921875 180.679688 236.992188 180.613281 237.0625 180.542969 C 237.0625 180.542969 237.128906 180.472656 237.128906 180.472656 C 237.199219 180.40625 237.199219 180.335938 237.265625 180.265625 C 237.265625 180.199219 237.335938 180.199219 237.335938 180.128906 C 237.40625 180.0625 237.40625 179.992188 237.472656 179.921875 C 237.472656 179.855469 237.542969 179.855469 237.542969 179.785156 C 237.542969 179.71875 237.609375 179.648438 237.609375 179.578125 C 237.609375 179.511719 237.609375 179.511719 237.679688 179.441406 L 237.679688 179.375 L 237.816406 178.890625 C 237.816406 178.890625 237.816406 178.824219 237.816406 178.753906 L 237.886719 178.617188 C 237.957031 178.203125 238.09375 177.792969 238.160156 177.308594 C 238.160156 177.171875 238.230469 177.035156 238.230469 176.964844 C 238.300781 176.554688 238.367188 176.140625 238.4375 175.726562 C 238.4375 175.660156 238.4375 175.589844 238.503906 175.519531 L 238.574219 175.316406 C 238.644531 174.832031 238.710938 174.421875 238.78125 173.9375 C 238.847656 173.457031 238.917969 172.90625 238.988281 172.425781 C 239.054688 172.152344 239.054688 171.808594 239.125 171.53125 L 239.195312 171.117188 C 239.195312 171.050781 239.195312 171.050781 239.195312 170.980469 C 239.195312 170.84375 239.195312 170.707031 239.261719 170.570312 C 239.332031 170.085938 239.332031 169.535156 239.398438 169.125 C 239.398438 168.710938 239.46875 168.367188 239.46875 167.953125 C 239.46875 167.679688 239.46875 167.40625 239.539062 167.058594 C 239.539062 166.714844 239.539062 166.441406 239.539062 166.097656 C 239.539062 165.890625 239.539062 165.683594 239.539062 165.476562 C 239.539062 165.273438 239.539062 165.066406 239.539062 164.859375 C 239.539062 164.722656 239.539062 164.585938 239.539062 164.445312 L 239.539062 164.308594 C 239.539062 161.351562 240.84375 158.53125 243.183594 156.605469 C 243.664062 156.191406 244.285156 155.917969 244.972656 155.917969 C 254.671875 155.089844 262.304688 146.835938 262.304688 137.070312 C 262.238281 136.382812 262.03125 135.832031 261.550781 135.351562 Z M 261.550781 135.351562 "/></g><g style="fill:#5a87a3;fill-opacity:0.4;"><g transform="translate(109.124997, 262.775973)"><path style="stroke:none" d="M 11.171875 -10.4375 L 11.171875 -0.1875 C 10.835938 -0.09375 10.296875 0 9.546875 0.09375 C 8.804688 0.1875 8.082031 0.234375 7.375 0.234375 C 6.664062 0.234375 6.039062 0.175781 5.5 0.0625 C 4.957031 -0.0390625 4.5 -0.226562 4.125 -0.5 C 3.757812 -0.78125 3.484375 -1.164062 3.296875 -1.65625 C 3.109375 -2.15625 3.015625 -2.8125 3.015625 -3.625 L 3.015625 -28.109375 C 3.359375 -28.171875 3.898438 -28.253906 4.640625 -28.359375 C 5.378906 -28.460938 6.085938 -28.515625 6.765625 -28.515625 C 7.484375 -28.515625 8.109375 -28.460938 8.640625 -28.359375 C 9.179688 -28.253906 9.640625 -28.0625 10.015625 -27.78125 C 10.390625 -27.5 10.664062 -27.109375 10.84375 -26.609375 C 11.03125 -26.117188 11.125 -25.472656 11.125 -24.671875 L 11.125 -17.296875 L 20.78125 -28.375 C 22.875 -28.375 24.378906 -27.976562 25.296875 -27.1875 C 26.210938 -26.40625 26.671875 -25.472656 26.671875 -24.390625 C 26.671875 -23.585938 26.46875 -22.828125 26.0625 -22.109375 C 25.65625 -21.398438 25.003906 -20.597656 24.109375 -19.703125 L 18.3125 -13.90625 C 19.09375 -13.039062 19.90625 -12.144531 20.75 -11.21875 C 21.601562 -10.289062 22.4375 -9.382812 23.25 -8.5 C 24.070312 -7.625 24.863281 -6.785156 25.625 -5.984375 C 26.382812 -5.179688 27.039062 -4.484375 27.59375 -3.890625 C 27.59375 -3.210938 27.46875 -2.609375 27.21875 -2.078125 C 26.96875 -1.554688 26.632812 -1.109375 26.21875 -0.734375 C 25.800781 -0.367188 25.328125 -0.09375 24.796875 0.09375 C 24.273438 0.28125 23.722656 0.375 23.140625 0.375 C 21.867188 0.375 20.832031 0.0546875 20.03125 -0.578125 C 19.226562 -1.210938 18.457031 -1.960938 17.71875 -2.828125 Z M 11.171875 -10.4375 "/></g></g><g style="fill:#5a87a3;fill-opacity:0.4;"><g transform="translate(137.643226, 262.775973)"><path style="stroke:none" d="M 27.921875 -10.390625 C 27.921875 -8.722656 27.632812 -7.195312 27.0625 -5.8125 C 26.488281 -4.4375 25.660156 -3.257812 24.578125 -2.28125 C 23.492188 -1.3125 22.175781 -0.566406 20.625 -0.046875 C 19.082031 0.472656 17.335938 0.734375 15.390625 0.734375 C 13.441406 0.734375 11.695312 0.472656 10.15625 -0.046875 C 8.613281 -0.566406 7.300781 -1.3125 6.21875 -2.28125 C 5.132812 -3.257812 4.304688 -4.4375 3.734375 -5.8125 C 3.160156 -7.195312 2.875 -8.722656 2.875 -10.390625 L 2.875 -28.109375 C 3.21875 -28.171875 3.757812 -28.253906 4.5 -28.359375 C 5.238281 -28.460938 5.945312 -28.515625 6.625 -28.515625 C 7.34375 -28.515625 7.972656 -28.460938 8.515625 -28.359375 C 9.054688 -28.253906 9.507812 -28.0625 9.875 -27.78125 C 10.25 -27.5 10.523438 -27.109375 10.703125 -26.609375 C 10.890625 -26.117188 10.984375 -25.472656 10.984375 -24.671875 L 10.984375 -10.53125 C 10.984375 -9.039062 11.394531 -7.878906 12.21875 -7.046875 C 13.039062 -6.210938 14.097656 -5.796875 15.390625 -5.796875 C 16.722656 -5.796875 17.789062 -6.210938 18.59375 -7.046875 C 19.394531 -7.878906 19.796875 -9.039062 19.796875 -10.53125 L 19.796875 -28.109375 C 20.140625 -28.171875 20.679688 -28.253906 21.421875 -28.359375 C 22.160156 -28.460938 22.875 -28.515625 23.5625 -28.515625 C 24.269531 -28.515625 24.894531 -28.460938 25.4375 -28.359375 C 25.976562 -28.253906 26.429688 -28.0625 26.796875 -27.78125 C 27.171875 -27.5 27.453125 -27.109375 27.640625 -26.609375 C 27.828125 -26.117188 27.921875 -25.472656 27.921875 -24.671875 Z M 27.921875 -10.390625 "/></g></g><g style="fill:#5a87a3;fill-opacity:0.4;"><g transform="translate(168.433633, 262.775973)"><path style="stroke:none" d="M 14.28125 -21.609375 L 2.875 -21.609375 C 2.65625 -21.953125 2.453125 -22.414062 2.265625 -23 C 2.085938 -23.59375 2 -24.210938 2 -24.859375 C 2 -26.066406 2.269531 -26.929688 2.8125 -27.453125 C 3.351562 -27.984375 4.054688 -28.25 4.921875 -28.25 L 22.21875 -28.25 C 23.570312 -27.132812 24.25 -25.648438 24.25 -23.796875 C 24.25 -23.015625 24.070312 -22.242188 23.71875 -21.484375 C 23.363281 -20.734375 22.910156 -20.019531 22.359375 -19.34375 L 11.828125 -6.625 L 23.703125 -6.625 C 23.910156 -6.289062 24.109375 -5.828125 24.296875 -5.234375 C 24.484375 -4.648438 24.578125 -4.035156 24.578125 -3.390625 C 24.578125 -2.179688 24.304688 -1.3125 23.765625 -0.78125 C 23.222656 -0.257812 22.519531 0 21.65625 0 L 3.390625 0 C 2.859375 -0.4375 2.421875 -1.023438 2.078125 -1.765625 C 1.742188 -2.503906 1.578125 -3.351562 1.578125 -4.3125 C 1.578125 -5.082031 1.773438 -5.867188 2.171875 -6.671875 C 2.578125 -7.484375 3.0625 -8.226562 3.625 -8.90625 Z M 14.28125 -21.609375 "/></g></g><g style="fill:#5a87a3;fill-opacity:0.4;"><g transform="translate(194.401454, 262.775973)"><path style="stroke:none" d="M 11.125 -0.1875 C 10.789062 -0.09375 10.257812 0 9.53125 0.09375 C 8.800781 0.1875 8.082031 0.234375 7.375 0.234375 C 6.664062 0.234375 6.039062 0.175781 5.5 0.0625 C 4.957031 -0.0390625 4.5 -0.226562 4.125 -0.5 C 3.757812 -0.78125 3.484375 -1.164062 3.296875 -1.65625 C 3.109375 -2.15625 3.015625 -2.8125 3.015625 -3.625 L 3.015625 -28.109375 C 3.359375 -28.171875 3.898438 -28.253906 4.640625 -28.359375 C 5.378906 -28.460938 6.085938 -28.515625 6.765625 -28.515625 C 7.484375 -28.515625 8.109375 -28.460938 8.640625 -28.359375 C 9.179688 -28.253906 9.640625 -28.0625 10.015625 -27.78125 C 10.390625 -27.5 10.664062 -27.109375 10.84375 -26.609375 C 11.03125 -26.117188 11.125 -25.472656 11.125 -24.671875 Z M 11.125 -0.1875 "/></g></g><g style="fill:#5a87a3;fill-opacity:0.4;"><g transform="translate(208.544634, 262.775973)"><path style="stroke:none" d="M 11.078125 -9.09375 L 11.078125 -0.1875 C 10.742188 -0.09375 10.210938 0 9.484375 0.09375 C 8.753906 0.1875 8.035156 0.234375 7.328125 0.234375 C 6.617188 0.234375 5.992188 0.175781 5.453125 0.0625 C 4.910156 -0.0390625 4.460938 -0.226562 4.109375 -0.5 C 3.753906 -0.78125 3.484375 -1.164062 3.296875 -1.65625 C 3.109375 -2.15625 3.015625 -2.8125 3.015625 -3.625 L 3.015625 -25.453125 C 3.015625 -26.109375 3.191406 -26.613281 3.546875 -26.96875 C 3.898438 -27.320312 4.390625 -27.609375 5.015625 -27.828125 C 6.054688 -28.191406 7.273438 -28.457031 8.671875 -28.625 C 10.066406 -28.800781 11.550781 -28.890625 13.125 -28.890625 C 17.394531 -28.890625 20.609375 -27.992188 22.765625 -26.203125 C 24.929688 -24.410156 26.015625 -21.984375 26.015625 -18.921875 C 26.015625 -17.003906 25.519531 -15.363281 24.53125 -14 C 23.539062 -12.644531 22.367188 -11.597656 21.015625 -10.859375 C 22.117188 -9.335938 23.210938 -7.910156 24.296875 -6.578125 C 25.378906 -5.253906 26.226562 -4.050781 26.84375 -2.96875 C 26.539062 -1.882812 25.976562 -1.054688 25.15625 -0.484375 C 24.332031 0.0859375 23.414062 0.375 22.40625 0.375 C 21.71875 0.375 21.125 0.296875 20.625 0.140625 C 20.132812 -0.015625 19.703125 -0.226562 19.328125 -0.5 C 18.960938 -0.78125 18.625 -1.125 18.3125 -1.53125 C 18.007812 -1.9375 17.71875 -2.367188 17.4375 -2.828125 L 13.546875 -9.09375 Z M 14 -15.25 C 15.175781 -15.25 16.101562 -15.550781 16.78125 -16.15625 C 17.46875 -16.757812 17.8125 -17.648438 17.8125 -18.828125 C 17.8125 -20.003906 17.429688 -20.894531 16.671875 -21.5 C 15.910156 -22.101562 14.710938 -22.40625 13.078125 -22.40625 C 12.609375 -22.40625 12.234375 -22.390625 11.953125 -22.359375 C 11.679688 -22.328125 11.375 -22.28125 11.03125 -22.21875 L 11.03125 -15.25 Z M 14 -15.25 "/></g></g><g style="fill:#5a87a3;fill-opacity:0.4;"><g transform="translate(236.784634, 262.775973)"><path style="stroke:none" d="M 9 -27.265625 C 9.519531 -27.578125 10.3125 -27.867188 11.375 -28.140625 C 12.445312 -28.421875 13.523438 -28.5625 14.609375 -28.5625 C 16.148438 -28.5625 17.515625 -28.335938 18.703125 -27.890625 C 19.898438 -27.441406 20.671875 -26.738281 21.015625 -25.78125 C 21.566406 -24.175781 22.164062 -22.304688 22.8125 -20.171875 C 23.46875 -18.035156 24.117188 -15.832031 24.765625 -13.5625 C 25.410156 -11.289062 26.039062 -9.050781 26.65625 -6.84375 C 27.28125 -4.632812 27.820312 -2.675781 28.28125 -0.96875 C 27.914062 -0.539062 27.359375 -0.195312 26.609375 0.0625 C 25.867188 0.332031 24.988281 0.46875 23.96875 0.46875 C 23.226562 0.46875 22.601562 0.40625 22.09375 0.28125 C 21.582031 0.15625 21.164062 -0.03125 20.84375 -0.28125 C 20.519531 -0.53125 20.253906 -0.851562 20.046875 -1.25 C 19.847656 -1.65625 19.675781 -2.117188 19.53125 -2.640625 L 18.6875 -5.84375 L 10.296875 -5.84375 C 10.046875 -4.914062 9.796875 -3.957031 9.546875 -2.96875 C 9.304688 -1.976562 9.0625 -1.019531 8.8125 -0.09375 C 8.375 0.0625 7.914062 0.191406 7.4375 0.296875 C 6.957031 0.410156 6.378906 0.46875 5.703125 0.46875 C 4.128906 0.46875 2.960938 0.195312 2.203125 -0.34375 C 1.441406 -0.882812 1.0625 -1.632812 1.0625 -2.59375 C 1.0625 -3.03125 1.125 -3.460938 1.25 -3.890625 C 1.375 -4.328125 1.515625 -4.835938 1.671875 -5.421875 C 1.890625 -6.253906 2.191406 -7.289062 2.578125 -8.53125 C 2.960938 -9.769531 3.382812 -11.109375 3.84375 -12.546875 C 4.3125 -13.984375 4.804688 -15.457031 5.328125 -16.96875 C 5.859375 -18.488281 6.351562 -19.921875 6.8125 -21.265625 C 7.28125 -22.609375 7.707031 -23.804688 8.09375 -24.859375 C 8.476562 -25.910156 8.78125 -26.710938 9 -27.265625 Z M 14.5625 -21.28125 C 14.125 -19.988281 13.632812 -18.546875 13.09375 -16.953125 C 12.5625 -15.359375 12.078125 -13.742188 11.640625 -12.109375 L 17.390625 -12.109375 C 16.953125 -13.773438 16.507812 -15.40625 16.0625 -17 C 15.613281 -18.59375 15.207031 -20.019531 14.84375 -21.28125 Z M 14.5625 -21.28125 "/></g></g><g style="fill:#406e89;fill-opacity:1;"><g transform="translate(109.124997, 262.775973)"><path style="stroke:none" d="M 11.171875 -10.4375 L 11.171875 -0.1875 C 10.835938 -0.09375 10.296875 0 9.546875 0.09375 C 8.804688 0.1875 8.082031 0.234375 7.375 0.234375 C 6.664062 0.234375 6.039062 0.175781 5.5 0.0625 C 4.957031 -0.0390625 4.5 -0.226562 4.125 -0.5 C 3.757812 -0.78125 3.484375 -1.164062 3.296875 -1.65625 C 3.109375 -2.15625 3.015625 -2.8125 3.015625 -3.625 L 3.015625 -28.109375 C 3.359375 -28.171875 3.898438 -28.253906 4.640625 -28.359375 C 5.378906 -28.460938 6.085938 -28.515625 6.765625 -28.515625 C 7.484375 -28.515625 8.109375 -28.460938 8.640625 -28.359375 C 9.179688 -28.253906 9.640625 -28.0625 10.015625 -27.78125 C 10.390625 -27.5 10.664062 -27.109375 10.84375 -26.609375 C 11.03125 -26.117188 11.125 -25.472656 11.125 -24.671875 L 11.125 -17.296875 L 20.78125 -28.375 C 22.875 -28.375 24.378906 -27.976562 25.296875 -27.1875 C 26.210938 -26.40625 26.671875 -25.472656 26.671875 -24.390625 C 26.671875 -23.585938 26.46875 -22.828125 26.0625 -22.109375 C 25.65625 -21.398438 25.003906 -20.597656 24.109375 -19.703125 L 18.3125 -13.90625 C 19.09375 -13.039062 19.90625 -12.144531 20.75 -11.21875 C 21.601562 -10.289062 22.4375 -9.382812 23.25 -8.5 C 24.070312 -7.625 24.863281 -6.785156 25.625 -5.984375 C 26.382812 -5.179688 27.039062 -4.484375 27.59375 -3.890625 C 27.59375 -3.210938 27.46875 -2.609375 27.21875 -2.078125 C 26.96875 -1.554688 26.632812 -1.109375 26.21875 -0.734375 C 25.800781 -0.367188 25.328125 -0.09375 24.796875 0.09375 C 24.273438 0.28125 23.722656 0.375 23.140625 0.375 C 21.867188 0.375 20.832031 0.0546875 20.03125 -0.578125 C 19.226562 -1.210938 18.457031 -1.960938 17.71875 -2.828125 Z M 11.171875 -10.4375 "/></g></g><g style="fill:#406e89;fill-opacity:1;"><g transform="translate(137.643226, 262.775973)"><path style="stroke:none" d="M 27.921875 -10.390625 C 27.921875 -8.722656 27.632812 -7.195312 27.0625 -5.8125 C 26.488281 -4.4375 25.660156 -3.257812 24.578125 -2.28125 C 23.492188 -1.3125 22.175781 -0.566406 20.625 -0.046875 C 19.082031 0.472656 17.335938 0.734375 15.390625 0.734375 C 13.441406 0.734375 11.695312 0.472656 10.15625 -0.046875 C 8.613281 -0.566406 7.300781 -1.3125 6.21875 -2.28125 C 5.132812 -3.257812 4.304688 -4.4375 3.734375 -5.8125 C 3.160156 -7.195312 2.875 -8.722656 2.875 -10.390625 L 2.875 -28.109375 C 3.21875 -28.171875 3.757812 -28.253906 4.5 -28.359375 C 5.238281 -28.460938 5.945312 -28.515625 6.625 -28.515625 C 7.34375 -28.515625 7.972656 -28.460938 8.515625 -28.359375 C 9.054688 -28.253906 9.507812 -28.0625 9.875 -27.78125 C 10.25 -27.5 10.523438 -27.109375 10.703125 -26.609375 C 10.890625 -26.117188 10.984375 -25.472656 10.984375 -24.671875 L 10.984375 -10.53125 C 10.984375 -9.039062 11.394531 -7.878906 12.21875 -7.046875 C 13.039062 -6.210938 14.097656 -5.796875 15.390625 -5.796875 C 16.722656 -5.796875 17.789062 -6.210938 18.59375 -7.046875 C 19.394531 -7.878906 19.796875 -9.039062 19.796875 -10.53125 L 19.796875 -28.109375 C 20.140625 -28.171875 20.679688 -28.253906 21.421875 -28.359375 C 22.160156 -28.460938 22.875 -28.515625 23.5625 -28.515625 C 24.269531 -28.515625 24.894531 -28.460938 25.4375 -28.359375 C 25.976562 -28.253906 26.429688 -28.0625 26.796875 -27.78125 C 27.171875 -27.5 27.453125 -27.109375 27.640625 -26.609375 C 27.828125 -26.117188 27.921875 -25.472656 27.921875 -24.671875 Z M 27.921875 -10.390625 "/></g></g><g style="fill:#406e89;fill-opacity:1;"><g transform="translate(168.433633, 262.775973)"><path style="stroke:none" d="M 14.28125 -21.609375 L 2.875 -21.609375 C 2.65625 -21.953125 2.453125 -22.414062 2.265625 -23 C 2.085938 -23.59375 2 -24.210938 2 -24.859375 C 2 -26.066406 2.269531 -26.929688 2.8125 -27.453125 C 3.351562 -27.984375 4.054688 -28.25 4.921875 -28.25 L 22.21875 -28.25 C 23.570312 -27.132812 24.25 -25.648438 24.25 -23.796875 C 24.25 -23.015625 24.070312 -22.242188 23.71875 -21.484375 C 23.363281 -20.734375 22.910156 -20.019531 22.359375 -19.34375 L 11.828125 -6.625 L 23.703125 -6.625 C 23.910156 -6.289062 24.109375 -5.828125 24.296875 -5.234375 C 24.484375 -4.648438 24.578125 -4.035156 24.578125 -3.390625 C 24.578125 -2.179688 24.304688 -1.3125 23.765625 -0.78125 C 23.222656 -0.257812 22.519531 0 21.65625 0 L 3.390625 0 C 2.859375 -0.4375 2.421875 -1.023438 2.078125 -1.765625 C 1.742188 -2.503906 1.578125 -3.351562 1.578125 -4.3125 C 1.578125 -5.082031 1.773438 -5.867188 2.171875 -6.671875 C 2.578125 -7.484375 3.0625 -8.226562 3.625 -8.90625 Z M 14.28125 -21.609375 "/></g></g><g style="fill:#406e89;fill-opacity:1;"><g transform="translate(194.401454, 262.775973)"><path style="stroke:none" d="M 11.125 -0.1875 C 10.789062 -0.09375 10.257812 0 9.53125 0.09375 C 8.800781 0.1875 8.082031 0.234375 7.375 0.234375 C 6.664062 0.234375 6.039062 0.175781 5.5 0.0625 C 4.957031 -0.0390625 4.5 -0.226562 4.125 -0.5 C 3.757812 -0.78125 3.484375 -1.164062 3.296875 -1.65625 C 3.109375 -2.15625 3.015625 -2.8125 3.015625 -3.625 L 3.015625 -28.109375 C 3.359375 -28.171875 3.898438 -28.253906 4.640625 -28.359375 C 5.378906 -28.460938 6.085938 -28.515625 6.765625 -28.515625 C 7.484375 -28.515625 8.109375 -28.460938 8.640625 -28.359375 C 9.179688 -28.253906 9.640625 -28.0625 10.015625 -27.78125 C 10.390625 -27.5 10.664062 -27.109375 10.84375 -26.609375 C 11.03125 -26.117188 11.125 -25.472656 11.125 -24.671875 Z M 11.125 -0.1875 "/></g></g><g style="fill:#406e89;fill-opacity:1;"><g transform="translate(208.544634, 262.775973)"><path style="stroke:none" d="M 11.078125 -9.09375 L 11.078125 -0.1875 C 10.742188 -0.09375 10.210938 0 9.484375 0.09375 C 8.753906 0.1875 8.035156 0.234375 7.328125 0.234375 C 6.617188 0.234375 5.992188 0.175781 5.453125 0.0625 C 4.910156 -0.0390625 4.460938 -0.226562 4.109375 -0.5 C 3.753906 -0.78125 3.484375 -1.164062 3.296875 -1.65625 C 3.109375 -2.15625 3.015625 -2.8125 3.015625 -3.625 L 3.015625 -25.453125 C 3.015625 -26.109375 3.191406 -26.613281 3.546875 -26.96875 C 3.898438 -27.320312 4.390625 -27.609375 5.015625 -27.828125 C 6.054688 -28.191406 7.273438 -28.457031 8.671875 -28.625 C 10.066406 -28.800781 11.550781 -28.890625 13.125 -28.890625 C 17.394531 -28.890625 20.609375 -27.992188 22.765625 -26.203125 C 24.929688 -24.410156 26.015625 -21.984375 26.015625 -18.921875 C 26.015625 -17.003906 25.519531 -15.363281 24.53125 -14 C 23.539062 -12.644531 22.367188 -11.597656 21.015625 -10.859375 C 22.117188 -9.335938 23.210938 -7.910156 24.296875 -6.578125 C 25.378906 -5.253906 26.226562 -4.050781 26.84375 -2.96875 C 26.539062 -1.882812 25.976562 -1.054688 25.15625 -0.484375 C 24.332031 0.0859375 23.414062 0.375 22.40625 0.375 C 21.71875 0.375 21.125 0.296875 20.625 0.140625 C 20.132812 -0.015625 19.703125 -0.226562 19.328125 -0.5 C 18.960938 -0.78125 18.625 -1.125 18.3125 -1.53125 C 18.007812 -1.9375 17.71875 -2.367188 17.4375 -2.828125 L 13.546875 -9.09375 Z M 14 -15.25 C 15.175781 -15.25 16.101562 -15.550781 16.78125 -16.15625 C 17.46875 -16.757812 17.8125 -17.648438 17.8125 -18.828125 C 17.8125 -20.003906 17.429688 -20.894531 16.671875 -21.5 C 15.910156 -22.101562 14.710938 -22.40625 13.078125 -22.40625 C 12.609375 -22.40625 12.234375 -22.390625 11.953125 -22.359375 C 11.679688 -22.328125 11.375 -22.28125 11.03125 -22.21875 L 11.03125 -15.25 Z M 14 -15.25 "/></g></g><g style="fill:#406e89;fill-opacity:1;"><g transform="translate(236.784634, 262.775973)"><path style="stroke:none" d="M 9 -27.265625 C 9.519531 -27.578125 10.3125 -27.867188 11.375 -28.140625 C 12.445312 -28.421875 13.523438 -28.5625 14.609375 -28.5625 C 16.148438 -28.5625 17.515625 -28.335938 18.703125 -27.890625 C 19.898438 -27.441406 20.671875 -26.738281 21.015625 -25.78125 C 21.566406 -24.175781 22.164062 -22.304688 22.8125 -20.171875 C 23.46875 -18.035156 24.117188 -15.832031 24.765625 -13.5625 C 25.410156 -11.289062 26.039062 -9.050781 26.65625 -6.84375 C 27.28125 -4.632812 27.820312 -2.675781 28.28125 -0.96875 C 27.914062 -0.539062 27.359375 -0.195312 26.609375 0.0625 C 25.867188 0.332031 24.988281 0.46875 23.96875 0.46875 C 23.226562 0.46875 22.601562 0.40625 22.09375 0.28125 C 21.582031 0.15625 21.164062 -0.03125 20.84375 -0.28125 C 20.519531 -0.53125 20.253906 -0.851562 20.046875 -1.25 C 19.847656 -1.65625 19.675781 -2.117188 19.53125 -2.640625 L 18.6875 -5.84375 L 10.296875 -5.84375 C 10.046875 -4.914062 9.796875 -3.957031 9.546875 -2.96875 C 9.304688 -1.976562 9.0625 -1.019531 8.8125 -0.09375 C 8.375 0.0625 7.914062 0.191406 7.4375 0.296875 C 6.957031 0.410156 6.378906 0.46875 5.703125 0.46875 C 4.128906 0.46875 2.960938 0.195312 2.203125 -0.34375 C 1.441406 -0.882812 1.0625 -1.632812 1.0625 -2.59375 C 1.0625 -3.03125 1.125 -3.460938 1.25 -3.890625 C 1.375 -4.328125 1.515625 -4.835938 1.671875 -5.421875 C 1.890625 -6.253906 2.191406 -7.289062 2.578125 -8.53125 C 2.960938 -9.769531 3.382812 -11.109375 3.84375 -12.546875 C 4.3125 -13.984375 4.804688 -15.457031 5.328125 -16.96875 C 5.859375 -18.488281 6.351562 -19.921875 6.8125 -21.265625 C 7.28125 -22.609375 7.707031 -23.804688 8.09375 -24.859375 C 8.476562 -25.910156 8.78125 -26.710938 9 -27.265625 Z M 14.5625 -21.28125 C 14.125 -19.988281 13.632812 -18.546875 13.09375 -16.953125 C 12.5625 -15.359375 12.078125 -13.742188 11.640625 -12.109375 L 17.390625 -12.109375 C 16.953125 -13.773438 16.507812 -15.40625 16.0625 -17 C 15.613281 -18.59375 15.207031 -20.019531 14.84375 -21.28125 Z M 14.5625 -21.28125 "/></g></g></g></svg>