<svg xmlns="http://www.w3.org/2000/svg" xmlns:xlink="http://www.w3.org/1999/xlink" width="500" zoomAndPan="magnify" viewBox="0 0 375 374.999991" height="500" preserveAspectRatio="xMidYMid meet" version="1.2"><defs><clipPath id="282d9e721d"><path d="M 23.457031 43.5 L 351 43.5 L 351 246.75 L 23.457031 246.75 Z M 23.457031 43.5 "/></clipPath></defs><g id="13d094d992"><g clip-rule="nonzero" clip-path="url(#282d9e721d)"><path style=" stroke:none;fill-rule:nonzero;fill:#406e89;fill-opacity:1;" d="M 349.125 45.003906 C 348.074219 44.101562 346.871094 43.5 345.519531 43.5 L 297.125 43.800781 C 289.757812 43.800781 283.296875 47.105469 279.089844 52.367188 C 274.878906 47.105469 268.265625 43.800781 261.054688 43.800781 L 212.660156 43.800781 C 209.800781 43.800781 207.398438 46.207031 207.398438 49.0625 C 207.398438 53.417969 208 57.628906 209.351562 61.535156 C 211.757812 69.351562 216.566406 76.265625 223.027344 81.375 C 229.339844 86.484375 237.007812 89.492188 244.972656 90.242188 C 246.773438 90.390625 248.277344 91.144531 249.480469 92.347656 C 249.929688 92.796875 250.230469 93.246094 250.683594 93.699219 C 252.335938 95.800781 252.9375 98.660156 252.1875 101.515625 C 251.433594 104.21875 249.632812 106.472656 247.074219 107.527344 C 243.320312 109.027344 239.109375 109.179688 235.203125 107.527344 C 231.894531 106.171875 229.191406 103.917969 227.539062 100.761719 C 207.097656 65.59375 169.375 43.800781 128.792969 43.800781 C 126.988281 43.800781 125.1875 43.800781 123.535156 43.949219 C 103.09375 44.851562 83.40625 51.316406 66.421875 62.4375 C 51.84375 71.90625 39.667969 84.832031 30.800781 99.859375 C 28.996094 101.363281 27.195312 103.015625 25.539062 104.519531 C 25.539062 104.519531 25.539062 104.671875 25.390625 104.671875 C 25.242188 104.820312 25.089844 105.121094 24.789062 105.269531 C 24.640625 105.421875 24.640625 105.570312 24.640625 105.722656 C 24.488281 105.871094 24.488281 106.023438 24.339844 106.171875 C 24.339844 106.324219 24.1875 106.472656 24.1875 106.625 C 24.1875 106.773438 24.039062 106.925781 24.039062 107.074219 C 24.039062 107.375 24.039062 107.527344 23.886719 107.828125 C 24.039062 108.125 24.039062 108.125 24.039062 108.277344 C 24.039062 184.628906 86.109375 246.699219 162.460938 246.699219 C 192.96875 246.699219 221.828125 236.929688 246.023438 218.59375 C 248.277344 216.789062 248.730469 213.632812 247.074219 211.230469 C 245.273438 208.976562 242.117188 208.523438 239.710938 210.175781 C 217.316406 227.160156 190.566406 236.179688 162.460938 236.179688 C 92.574219 236.328125 35.761719 179.96875 34.558594 110.382812 C 35.609375 109.328125 36.8125 108.277344 38.164062 107.375 C 43.425781 103.167969 49.4375 100.160156 55.902344 98.058594 C 55.601562 101.363281 55.449219 104.671875 55.449219 108.125 C 55.449219 167.191406 103.542969 215.289062 162.609375 215.289062 C 182.898438 215.289062 202.738281 209.574219 219.871094 198.605469 C 222.277344 197.101562 223.027344 193.796875 221.527344 191.390625 C 220.023438 188.984375 216.714844 188.234375 214.3125 189.738281 C 198.832031 199.507812 180.945312 204.765625 162.609375 204.765625 C 109.253906 204.765625 65.820312 161.332031 65.820312 107.976562 C 65.820312 103.769531 66.121094 99.710938 66.570312 95.652344 C 73.484375 94.902344 80.550781 95.503906 87.3125 97.304688 C 86.859375 100.761719 86.5625 104.371094 86.5625 107.976562 C 86.5625 107.976562 86.5625 107.976562 86.5625 108.125 C 86.5625 150.058594 120.675781 184.027344 162.460938 184.027344 C 175.835938 184.027344 188.910156 180.570312 200.484375 173.804688 C 203.039062 172.304688 203.789062 169.148438 202.4375 166.742188 C 200.933594 164.1875 197.777344 163.433594 195.375 164.789062 C 185.453125 170.5 174.183594 173.65625 162.609375 173.65625 C 126.539062 173.65625 97.082031 144.347656 97.082031 108.125 C 97.082031 105.871094 97.230469 103.46875 97.382812 101.214844 C 102.792969 103.917969 107.753906 107.527344 112.109375 111.882812 C 114.214844 113.988281 116.46875 115.941406 118.875 117.746094 C 123.382812 138.1875 141.269531 152.914062 162.460938 152.914062 C 171.929688 152.914062 181.097656 149.910156 188.761719 144.347656 C 191.015625 142.695312 191.617188 139.386719 189.964844 137.132812 C 188.308594 134.878906 185.003906 134.277344 182.75 135.929688 C 176.886719 140.289062 169.824219 142.542969 162.609375 142.542969 C 150.285156 142.542969 139.464844 136.082031 133.453125 126.164062 C 141.71875 129.617188 150.4375 131.421875 159.304688 131.421875 C 167.871094 131.421875 176.285156 129.769531 184.402344 126.460938 C 189.210938 124.507812 193.722656 121.953125 197.929688 118.949219 C 199.28125 132.925781 203.339844 146.453125 209.953125 158.777344 C 215.214844 168.546875 221.976562 177.414062 229.941406 185.226562 C 238.058594 193.042969 247.226562 199.507812 257.296875 204.464844 C 272.023438 211.679688 287.804688 215.289062 304.339844 215.289062 C 306.441406 215.289062 308.394531 214.085938 309.148438 212.132812 C 309.898438 210.175781 309.449219 207.921875 307.945312 206.417969 C 297.574219 196.050781 289.757812 183.875 284.5 170.347656 C 280.742188 160.578125 278.488281 150.359375 277.886719 139.988281 C 277.734375 137.132812 275.332031 135.03125 272.324219 135.179688 C 269.46875 135.332031 267.214844 137.886719 267.515625 140.742188 C 268.265625 152.164062 270.671875 163.433594 274.730469 174.257812 C 278.9375 185.078125 284.648438 195.148438 291.863281 204.316406 C 281.34375 202.964844 271.273438 199.957031 261.804688 195.296875 C 252.785156 190.789062 244.371094 185.078125 237.15625 178.015625 C 229.941406 170.949219 223.78125 162.984375 219.121094 154.117188 C 211.605469 140.140625 207.699219 124.507812 207.699219 108.578125 C 207.699219 107.226562 207.246094 105.871094 206.195312 104.820312 C 205.144531 103.769531 203.640625 103.316406 202.289062 103.316406 C 202.289062 103.316406 202.136719 103.316406 202.136719 103.316406 C 200.183594 103.316406 198.53125 104.371094 197.628906 105.871094 C 192.519531 110.683594 186.808594 114.4375 180.34375 116.996094 C 162.761719 124.207031 142.167969 121.804688 126.691406 110.832031 C 124.132812 109.027344 121.730469 106.925781 119.625 104.820312 C 112.710938 97.90625 104.597656 92.796875 95.429688 89.339844 C 95.429688 89.339844 95.277344 89.339844 95.277344 89.191406 C 95.277344 89.191406 95.128906 89.191406 95.128906 89.191406 C 84.304688 85.28125 72.582031 84.230469 61.160156 86.335938 C 61.160156 86.335938 61.160156 86.335938 61.011719 86.335938 C 60.859375 86.335938 60.859375 86.335938 60.710938 86.335938 C 57.855469 86.785156 55 87.535156 52.292969 88.4375 C 58.15625 81.824219 64.917969 76.113281 72.28125 71.304688 C 87.613281 60.933594 105.496094 55.222656 123.984375 54.320312 C 125.636719 54.171875 127.140625 54.171875 128.792969 54.171875 C 165.617188 54.171875 199.882812 74.011719 218.21875 105.871094 C 221.074219 110.984375 225.734375 114.890625 231.144531 117.144531 C 237.457031 119.699219 244.671875 119.699219 250.832031 117.144531 C 256.394531 114.890625 260.453125 110.082031 262.105469 104.21875 C 263.609375 98.207031 262.40625 92.046875 258.648438 87.386719 C 258.046875 86.632812 257.445312 85.882812 256.695312 85.132812 C 253.839844 82.277344 249.929688 80.472656 245.722656 80.023438 C 239.710938 79.421875 234.152344 77.167969 229.339844 73.410156 C 224.53125 69.5 220.925781 64.390625 219.121094 58.53125 C 218.671875 57.175781 218.371094 55.824219 218.070312 54.472656 L 260.902344 54.472656 C 267.96875 54.472656 273.828125 60.183594 273.828125 67.398438 C 273.828125 70.253906 276.234375 72.65625 279.089844 72.65625 C 281.945312 72.65625 284.347656 70.253906 284.347656 67.398438 C 284.347656 60.332031 290.058594 54.472656 297.273438 54.472656 L 339.808594 54.019531 C 337.402344 67.546875 326.132812 78.367188 312.003906 79.570312 C 308.394531 79.871094 304.9375 81.222656 302.234375 83.476562 C 294.871094 89.640625 290.660156 98.660156 290.511719 108.277344 L 290.511719 108.726562 C 290.511719 108.878906 290.511719 109.027344 290.511719 109.179688 C 290.511719 109.480469 290.511719 109.929688 290.511719 110.230469 C 290.511719 110.382812 290.511719 110.382812 290.511719 110.53125 C 290.511719 110.832031 290.511719 111.28125 290.511719 111.582031 C 290.511719 111.734375 290.511719 111.734375 290.511719 111.882812 C 290.511719 112.484375 290.511719 112.9375 290.511719 113.539062 C 290.511719 113.539062 290.511719 113.839844 290.511719 113.839844 C 290.511719 114.4375 290.511719 114.890625 290.511719 115.492188 C 290.511719 116.242188 290.359375 116.996094 290.359375 117.894531 C 290.359375 118.796875 290.210938 119.851562 290.058594 120.75 C 290.058594 121.203125 289.910156 121.652344 289.910156 122.105469 L 289.757812 122.855469 C 289.757812 123.457031 289.609375 124.058594 289.609375 124.507812 C 289.457031 125.5625 289.308594 126.613281 289.160156 127.664062 C 289.007812 128.566406 288.859375 129.46875 288.707031 130.21875 L 288.558594 130.972656 C 288.558594 131.121094 288.558594 131.121094 288.558594 131.273438 C 288.40625 132.023438 288.257812 132.925781 288.105469 133.675781 C 288.105469 133.675781 288.105469 133.828125 288.105469 133.976562 L 288.105469 134.277344 C 288.105469 134.429688 287.957031 134.578125 287.957031 134.730469 C 287.804688 135.179688 287.804688 135.628906 287.65625 136.082031 C 286.902344 137.132812 286.601562 138.488281 286.753906 139.6875 C 286.753906 139.839844 286.753906 139.988281 286.753906 140.140625 C 286.753906 140.289062 286.753906 140.289062 286.753906 140.441406 C 286.753906 140.742188 286.753906 140.890625 286.753906 141.191406 C 286.753906 141.34375 286.902344 141.644531 286.902344 141.792969 C 286.902344 141.941406 286.902344 141.941406 287.054688 142.09375 C 287.203125 142.242188 287.203125 142.542969 287.355469 142.695312 C 287.355469 142.84375 287.503906 142.84375 287.503906 142.996094 C 287.65625 143.144531 287.804688 143.296875 287.957031 143.597656 C 287.957031 143.597656 288.105469 143.746094 288.105469 143.746094 C 288.257812 143.898438 288.40625 144.046875 288.558594 144.199219 C 288.558594 144.199219 288.707031 144.347656 288.707031 144.347656 C 288.859375 144.5 289.007812 144.648438 289.308594 144.648438 C 289.457031 144.648438 289.457031 144.800781 289.609375 144.800781 C 289.757812 144.949219 290.058594 144.949219 290.210938 145.097656 C 290.359375 145.097656 290.359375 145.097656 290.511719 145.25 C 290.660156 145.25 290.960938 145.398438 291.113281 145.398438 C 291.113281 145.398438 291.261719 145.398438 291.261719 145.398438 C 291.414062 145.398438 291.5625 145.398438 291.5625 145.398438 C 291.714844 145.398438 291.714844 145.398438 291.863281 145.398438 C 293.066406 145.398438 294.117188 144.949219 295.019531 144.347656 C 295.019531 144.347656 295.171875 144.347656 295.171875 144.199219 C 295.320312 144.046875 295.472656 143.898438 295.621094 143.746094 C 295.621094 143.746094 295.769531 143.597656 295.769531 143.597656 C 295.921875 143.445312 295.921875 143.296875 296.070312 143.144531 C 296.070312 142.996094 296.222656 142.996094 296.222656 142.84375 C 296.371094 142.695312 296.371094 142.542969 296.523438 142.394531 C 296.523438 142.242188 296.671875 142.242188 296.671875 142.09375 C 296.671875 141.941406 296.824219 141.792969 296.824219 141.644531 C 296.824219 141.492188 296.824219 141.492188 296.972656 141.34375 L 296.972656 141.191406 L 297.273438 140.140625 C 297.273438 140.140625 297.273438 139.988281 297.273438 139.839844 L 297.425781 139.539062 C 297.574219 138.636719 297.875 137.734375 298.027344 136.683594 C 298.027344 136.382812 298.175781 136.082031 298.175781 135.929688 C 298.328125 135.03125 298.476562 134.128906 298.628906 133.226562 C 298.628906 133.074219 298.628906 132.925781 298.777344 132.773438 L 298.925781 132.324219 C 299.078125 131.273438 299.226562 130.371094 299.378906 129.320312 C 299.527344 128.265625 299.679688 127.0625 299.828125 126.011719 C 299.980469 125.410156 299.980469 124.660156 300.128906 124.058594 L 300.28125 123.15625 C 300.28125 123.007812 300.28125 123.007812 300.28125 122.855469 C 300.28125 122.554688 300.28125 122.253906 300.429688 121.953125 C 300.582031 120.902344 300.582031 119.699219 300.730469 118.796875 C 300.730469 117.894531 300.882812 117.144531 300.882812 116.242188 C 300.882812 115.640625 300.882812 115.039062 301.03125 114.289062 C 301.03125 113.539062 301.03125 112.9375 301.03125 112.183594 C 301.03125 111.734375 301.03125 111.28125 301.03125 110.832031 C 301.03125 110.382812 301.03125 109.929688 301.03125 109.480469 C 301.03125 109.179688 301.03125 108.878906 301.03125 108.578125 L 301.03125 108.277344 C 301.03125 101.816406 303.886719 95.652344 308.996094 91.445312 C 310.050781 90.542969 311.402344 89.941406 312.90625 89.941406 C 334.097656 88.136719 350.78125 70.101562 350.78125 48.761719 C 350.628906 47.257812 350.179688 46.054688 349.125 45.003906 Z M 349.125 45.003906 "/></g><g style="fill:#5a87a3;fill-opacity:0.4;"><g transform="translate(16.076636, 323.713939)"><path style="stroke:none" d="M 24.4375 -22.8125 L 24.4375 -0.40625 C 23.695312 -0.195312 22.515625 0.00390625 20.890625 0.203125 C 19.265625 0.398438 17.675781 0.5 16.125 0.5 C 14.570312 0.5 13.203125 0.378906 12.015625 0.140625 C 10.835938 -0.0859375 9.84375 -0.503906 9.03125 -1.109375 C 8.21875 -1.722656 7.609375 -2.570312 7.203125 -3.65625 C 6.796875 -4.738281 6.59375 -6.15625 6.59375 -7.90625 L 6.59375 -61.46875 C 7.332031 -61.601562 8.515625 -61.785156 10.140625 -62.015625 C 11.765625 -62.253906 13.320312 -62.375 14.8125 -62.375 C 16.363281 -62.375 17.726562 -62.253906 18.90625 -62.015625 C 20.09375 -61.785156 21.09375 -61.363281 21.90625 -60.75 C 22.71875 -60.144531 23.328125 -59.300781 23.734375 -58.21875 C 24.140625 -57.132812 24.34375 -55.710938 24.34375 -53.953125 L 24.34375 -37.828125 L 45.4375 -62.0625 C 50.03125 -62.0625 53.320312 -61.195312 55.3125 -59.46875 C 57.3125 -57.75 58.3125 -55.707031 58.3125 -53.34375 C 58.3125 -51.582031 57.875 -49.925781 57 -48.375 C 56.125 -46.820312 54.703125 -45.066406 52.734375 -43.109375 L 40.0625 -30.421875 C 41.75 -28.535156 43.519531 -26.578125 45.375 -24.546875 C 47.238281 -22.515625 49.066406 -20.535156 50.859375 -18.609375 C 52.648438 -16.679688 54.375 -14.835938 56.03125 -13.078125 C 57.6875 -11.328125 59.125 -9.804688 60.34375 -8.515625 C 60.34375 -7.023438 60.070312 -5.707031 59.53125 -4.5625 C 58.988281 -3.414062 58.257812 -2.4375 57.34375 -1.625 C 56.4375 -0.8125 55.40625 -0.203125 54.25 0.203125 C 53.101562 0.609375 51.890625 0.8125 50.609375 0.8125 C 47.835938 0.8125 45.570312 0.117188 43.8125 -1.265625 C 42.050781 -2.648438 40.363281 -4.289062 38.75 -6.1875 Z M 24.4375 -22.8125 "/></g></g><g style="fill:#5a87a3;fill-opacity:0.4;"><g transform="translate(78.452271, 323.713939)"><path style="stroke:none" d="M 61.0625 -22.71875 C 61.0625 -19.0625 60.429688 -15.726562 59.171875 -12.71875 C 57.921875 -9.71875 56.113281 -7.148438 53.75 -5.015625 C 51.382812 -2.890625 48.507812 -1.25 45.125 -0.09375 C 41.75 1.050781 37.929688 1.625 33.671875 1.625 C 29.410156 1.625 25.585938 1.050781 22.203125 -0.09375 C 18.828125 -1.25 15.957031 -2.890625 13.59375 -5.015625 C 11.226562 -7.148438 9.414062 -9.71875 8.15625 -12.71875 C 6.90625 -15.726562 6.28125 -19.0625 6.28125 -22.71875 L 6.28125 -61.46875 C 7.03125 -61.601562 8.210938 -61.785156 9.828125 -62.015625 C 11.453125 -62.253906 13.007812 -62.375 14.5 -62.375 C 16.0625 -62.375 17.429688 -62.253906 18.609375 -62.015625 C 19.796875 -61.785156 20.789062 -61.363281 21.59375 -60.75 C 22.40625 -60.144531 23.015625 -59.300781 23.421875 -58.21875 C 23.828125 -57.132812 24.03125 -55.710938 24.03125 -53.953125 L 24.03125 -23.015625 C 24.03125 -19.773438 24.925781 -17.238281 26.71875 -15.40625 C 28.507812 -13.582031 30.828125 -12.671875 33.671875 -12.671875 C 36.578125 -12.671875 38.910156 -13.582031 40.671875 -15.40625 C 42.429688 -17.238281 43.3125 -19.773438 43.3125 -23.015625 L 43.3125 -61.46875 C 44.050781 -61.601562 45.234375 -61.785156 46.859375 -62.015625 C 48.484375 -62.253906 50.035156 -62.375 51.515625 -62.375 C 53.078125 -62.375 54.445312 -62.253906 55.625 -62.015625 C 56.8125 -61.785156 57.8125 -61.363281 58.625 -60.75 C 59.4375 -60.144531 60.046875 -59.300781 60.453125 -58.21875 C 60.859375 -57.132812 61.0625 -55.710938 61.0625 -53.953125 Z M 61.0625 -22.71875 "/></g></g><g style="fill:#5a87a3;fill-opacity:0.4;"><g transform="translate(145.797661, 323.713939)"><path style="stroke:none" d="M 31.234375 -47.265625 L 6.28125 -47.265625 C 5.8125 -48.003906 5.375 -49.015625 4.96875 -50.296875 C 4.5625 -51.585938 4.359375 -52.941406 4.359375 -54.359375 C 4.359375 -56.992188 4.945312 -58.882812 6.125 -60.03125 C 7.3125 -61.1875 8.851562 -61.765625 10.75 -61.765625 L 48.578125 -61.765625 C 51.554688 -59.328125 53.046875 -56.082031 53.046875 -52.03125 C 53.046875 -50.34375 52.65625 -48.671875 51.875 -47.015625 C 51.09375 -45.359375 50.097656 -43.785156 48.890625 -42.296875 L 25.859375 -14.5 L 51.828125 -14.5 C 52.296875 -13.757812 52.734375 -12.742188 53.140625 -11.453125 C 53.546875 -10.171875 53.75 -8.820312 53.75 -7.40625 C 53.75 -4.769531 53.15625 -2.875 51.96875 -1.71875 C 50.789062 -0.570312 49.253906 0 47.359375 0 L 7.40625 0 C 6.25 -0.945312 5.300781 -2.226562 4.5625 -3.84375 C 3.820312 -5.46875 3.453125 -7.332031 3.453125 -9.4375 C 3.453125 -11.125 3.890625 -12.84375 4.765625 -14.59375 C 5.640625 -16.351562 6.6875 -17.976562 7.90625 -19.46875 Z M 31.234375 -47.265625 "/></g></g><g style="fill:#5a87a3;fill-opacity:0.4;"><g transform="translate(202.594995, 323.713939)"><path style="stroke:none" d="M 24.34375 -0.40625 C 23.59375 -0.195312 22.421875 0.00390625 20.828125 0.203125 C 19.242188 0.398438 17.675781 0.5 16.125 0.5 C 14.570312 0.5 13.203125 0.378906 12.015625 0.140625 C 10.835938 -0.0859375 9.84375 -0.503906 9.03125 -1.109375 C 8.21875 -1.722656 7.609375 -2.570312 7.203125 -3.65625 C 6.796875 -4.738281 6.59375 -6.15625 6.59375 -7.90625 L 6.59375 -61.46875 C 7.332031 -61.601562 8.515625 -61.785156 10.140625 -62.015625 C 11.765625 -62.253906 13.320312 -62.375 14.8125 -62.375 C 16.363281 -62.375 17.726562 -62.253906 18.90625 -62.015625 C 20.09375 -61.785156 21.09375 -61.363281 21.90625 -60.75 C 22.71875 -60.144531 23.328125 -59.300781 23.734375 -58.21875 C 24.140625 -57.132812 24.34375 -55.710938 24.34375 -53.953125 Z M 24.34375 -0.40625 "/></g></g><g style="fill:#5a87a3;fill-opacity:0.4;"><g transform="translate(233.529238, 323.713939)"><path style="stroke:none" d="M 24.234375 -19.875 L 24.234375 -0.40625 C 23.492188 -0.195312 22.328125 0.00390625 20.734375 0.203125 C 19.148438 0.398438 17.582031 0.5 16.03125 0.5 C 14.46875 0.5 13.09375 0.378906 11.90625 0.140625 C 10.726562 -0.0859375 9.75 -0.503906 8.96875 -1.109375 C 8.195312 -1.722656 7.609375 -2.570312 7.203125 -3.65625 C 6.796875 -4.738281 6.59375 -6.15625 6.59375 -7.90625 L 6.59375 -55.6875 C 6.59375 -57.101562 6.976562 -58.195312 7.75 -58.96875 C 8.53125 -59.75 9.597656 -60.378906 10.953125 -60.859375 C 13.253906 -61.660156 15.925781 -62.25 18.96875 -62.625 C 22.007812 -63 25.253906 -63.1875 28.703125 -63.1875 C 38.035156 -63.1875 45.066406 -61.222656 49.796875 -57.296875 C 54.523438 -53.378906 56.890625 -48.070312 56.890625 -41.375 C 56.890625 -37.1875 55.804688 -33.601562 53.640625 -30.625 C 51.484375 -27.65625 48.914062 -25.359375 45.9375 -23.734375 C 48.375 -20.421875 50.773438 -17.3125 53.140625 -14.40625 C 55.503906 -11.5 57.363281 -8.859375 58.71875 -6.484375 C 58.039062 -4.117188 56.804688 -2.3125 55.015625 -1.0625 C 53.222656 0.1875 51.210938 0.8125 48.984375 0.8125 C 47.492188 0.8125 46.207031 0.640625 45.125 0.296875 C 44.050781 -0.0351562 43.109375 -0.503906 42.296875 -1.109375 C 41.484375 -1.722656 40.738281 -2.46875 40.0625 -3.34375 C 39.382812 -4.226562 38.742188 -5.175781 38.140625 -6.1875 L 29.609375 -19.875 Z M 30.625 -33.375 C 33.195312 -33.375 35.226562 -34.03125 36.71875 -35.34375 C 38.207031 -36.664062 38.953125 -38.609375 38.953125 -41.171875 C 38.953125 -43.742188 38.117188 -45.6875 36.453125 -47 C 34.796875 -48.320312 32.175781 -48.984375 28.59375 -48.984375 C 27.582031 -48.984375 26.769531 -48.945312 26.15625 -48.875 C 25.550781 -48.8125 24.878906 -48.710938 24.140625 -48.578125 L 24.140625 -33.375 Z M 30.625 -33.375 "/></g></g><g style="fill:#5a87a3;fill-opacity:0.4;"><g transform="translate(295.296326, 323.713939)"><path style="stroke:none" d="M 19.671875 -59.640625 C 20.828125 -60.316406 22.566406 -60.957031 24.890625 -61.5625 C 27.222656 -62.164062 29.578125 -62.46875 31.953125 -62.46875 C 35.328125 -62.46875 38.316406 -61.976562 40.921875 -61 C 43.523438 -60.019531 45.195312 -58.484375 45.9375 -56.390625 C 47.15625 -52.867188 48.472656 -48.773438 49.890625 -44.109375 C 51.316406 -39.453125 52.738281 -34.640625 54.15625 -29.671875 C 55.582031 -24.703125 56.96875 -19.796875 58.3125 -14.953125 C 59.664062 -10.117188 60.851562 -5.84375 61.875 -2.125 C 61.0625 -1.175781 59.84375 -0.414062 58.21875 0.15625 C 56.59375 0.726562 54.664062 1.015625 52.4375 1.015625 C 50.8125 1.015625 49.441406 0.878906 48.328125 0.609375 C 47.210938 0.335938 46.300781 -0.0664062 45.59375 -0.609375 C 44.882812 -1.148438 44.304688 -1.859375 43.859375 -2.734375 C 43.421875 -3.617188 43.035156 -4.632812 42.703125 -5.78125 L 40.875 -12.78125 L 22.515625 -12.78125 C 21.972656 -10.75 21.429688 -8.648438 20.890625 -6.484375 C 20.347656 -4.328125 19.804688 -2.234375 19.265625 -0.203125 C 18.316406 0.128906 17.316406 0.414062 16.265625 0.65625 C 15.222656 0.894531 13.957031 1.015625 12.46875 1.015625 C 9.019531 1.015625 6.46875 0.425781 4.8125 -0.75 C 3.15625 -1.9375 2.328125 -3.578125 2.328125 -5.671875 C 2.328125 -6.617188 2.460938 -7.566406 2.734375 -8.515625 C 3.003906 -9.460938 3.3125 -10.578125 3.65625 -11.859375 C 4.125 -13.691406 4.78125 -15.957031 5.625 -18.65625 C 6.46875 -21.363281 7.394531 -24.289062 8.40625 -27.4375 C 9.425781 -30.582031 10.507812 -33.8125 11.65625 -37.125 C 12.8125 -40.4375 13.894531 -43.5625 14.90625 -46.5 C 15.925781 -49.4375 16.859375 -52.054688 17.703125 -54.359375 C 18.546875 -56.660156 19.203125 -58.421875 19.671875 -59.640625 Z M 31.84375 -46.546875 C 30.894531 -43.710938 29.828125 -40.550781 28.640625 -37.0625 C 27.460938 -33.582031 26.398438 -30.050781 25.453125 -26.46875 L 38.03125 -26.46875 C 37.082031 -30.125 36.117188 -33.691406 35.140625 -37.171875 C 34.160156 -40.648438 33.265625 -43.773438 32.453125 -46.546875 Z M 31.84375 -46.546875 "/></g></g><g style="fill:#406e89;fill-opacity:1;"><g transform="translate(16.076636, 323.713939)"><path style="stroke:none" d="M 24.4375 -22.8125 L 24.4375 -0.40625 C 23.695312 -0.195312 22.515625 0.00390625 20.890625 0.203125 C 19.265625 0.398438 17.675781 0.5 16.125 0.5 C 14.570312 0.5 13.203125 0.378906 12.015625 0.140625 C 10.835938 -0.0859375 9.84375 -0.503906 9.03125 -1.109375 C 8.21875 -1.722656 7.609375 -2.570312 7.203125 -3.65625 C 6.796875 -4.738281 6.59375 -6.15625 6.59375 -7.90625 L 6.59375 -61.46875 C 7.332031 -61.601562 8.515625 -61.785156 10.140625 -62.015625 C 11.765625 -62.253906 13.320312 -62.375 14.8125 -62.375 C 16.363281 -62.375 17.726562 -62.253906 18.90625 -62.015625 C 20.09375 -61.785156 21.09375 -61.363281 21.90625 -60.75 C 22.71875 -60.144531 23.328125 -59.300781 23.734375 -58.21875 C 24.140625 -57.132812 24.34375 -55.710938 24.34375 -53.953125 L 24.34375 -37.828125 L 45.4375 -62.0625 C 50.03125 -62.0625 53.320312 -61.195312 55.3125 -59.46875 C 57.3125 -57.75 58.3125 -55.707031 58.3125 -53.34375 C 58.3125 -51.582031 57.875 -49.925781 57 -48.375 C 56.125 -46.820312 54.703125 -45.066406 52.734375 -43.109375 L 40.0625 -30.421875 C 41.75 -28.535156 43.519531 -26.578125 45.375 -24.546875 C 47.238281 -22.515625 49.066406 -20.535156 50.859375 -18.609375 C 52.648438 -16.679688 54.375 -14.835938 56.03125 -13.078125 C 57.6875 -11.328125 59.125 -9.804688 60.34375 -8.515625 C 60.34375 -7.023438 60.070312 -5.707031 59.53125 -4.5625 C 58.988281 -3.414062 58.257812 -2.4375 57.34375 -1.625 C 56.4375 -0.8125 55.40625 -0.203125 54.25 0.203125 C 53.101562 0.609375 51.890625 0.8125 50.609375 0.8125 C 47.835938 0.8125 45.570312 0.117188 43.8125 -1.265625 C 42.050781 -2.648438 40.363281 -4.289062 38.75 -6.1875 Z M 24.4375 -22.8125 "/></g></g><g style="fill:#406e89;fill-opacity:1;"><g transform="translate(78.452271, 323.713939)"><path style="stroke:none" d="M 61.0625 -22.71875 C 61.0625 -19.0625 60.429688 -15.726562 59.171875 -12.71875 C 57.921875 -9.71875 56.113281 -7.148438 53.75 -5.015625 C 51.382812 -2.890625 48.507812 -1.25 45.125 -0.09375 C 41.75 1.050781 37.929688 1.625 33.671875 1.625 C 29.410156 1.625 25.585938 1.050781 22.203125 -0.09375 C 18.828125 -1.25 15.957031 -2.890625 13.59375 -5.015625 C 11.226562 -7.148438 9.414062 -9.71875 8.15625 -12.71875 C 6.90625 -15.726562 6.28125 -19.0625 6.28125 -22.71875 L 6.28125 -61.46875 C 7.03125 -61.601562 8.210938 -61.785156 9.828125 -62.015625 C 11.453125 -62.253906 13.007812 -62.375 14.5 -62.375 C 16.0625 -62.375 17.429688 -62.253906 18.609375 -62.015625 C 19.796875 -61.785156 20.789062 -61.363281 21.59375 -60.75 C 22.40625 -60.144531 23.015625 -59.300781 23.421875 -58.21875 C 23.828125 -57.132812 24.03125 -55.710938 24.03125 -53.953125 L 24.03125 -23.015625 C 24.03125 -19.773438 24.925781 -17.238281 26.71875 -15.40625 C 28.507812 -13.582031 30.828125 -12.671875 33.671875 -12.671875 C 36.578125 -12.671875 38.910156 -13.582031 40.671875 -15.40625 C 42.429688 -17.238281 43.3125 -19.773438 43.3125 -23.015625 L 43.3125 -61.46875 C 44.050781 -61.601562 45.234375 -61.785156 46.859375 -62.015625 C 48.484375 -62.253906 50.035156 -62.375 51.515625 -62.375 C 53.078125 -62.375 54.445312 -62.253906 55.625 -62.015625 C 56.8125 -61.785156 57.8125 -61.363281 58.625 -60.75 C 59.4375 -60.144531 60.046875 -59.300781 60.453125 -58.21875 C 60.859375 -57.132812 61.0625 -55.710938 61.0625 -53.953125 Z M 61.0625 -22.71875 "/></g></g><g style="fill:#406e89;fill-opacity:1;"><g transform="translate(145.797661, 323.713939)"><path style="stroke:none" d="M 31.234375 -47.265625 L 6.28125 -47.265625 C 5.8125 -48.003906 5.375 -49.015625 4.96875 -50.296875 C 4.5625 -51.585938 4.359375 -52.941406 4.359375 -54.359375 C 4.359375 -56.992188 4.945312 -58.882812 6.125 -60.03125 C 7.3125 -61.1875 8.851562 -61.765625 10.75 -61.765625 L 48.578125 -61.765625 C 51.554688 -59.328125 53.046875 -56.082031 53.046875 -52.03125 C 53.046875 -50.34375 52.65625 -48.671875 51.875 -47.015625 C 51.09375 -45.359375 50.097656 -43.785156 48.890625 -42.296875 L 25.859375 -14.5 L 51.828125 -14.5 C 52.296875 -13.757812 52.734375 -12.742188 53.140625 -11.453125 C 53.546875 -10.171875 53.75 -8.820312 53.75 -7.40625 C 53.75 -4.769531 53.15625 -2.875 51.96875 -1.71875 C 50.789062 -0.570312 49.253906 0 47.359375 0 L 7.40625 0 C 6.25 -0.945312 5.300781 -2.226562 4.5625 -3.84375 C 3.820312 -5.46875 3.453125 -7.332031 3.453125 -9.4375 C 3.453125 -11.125 3.890625 -12.84375 4.765625 -14.59375 C 5.640625 -16.351562 6.6875 -17.976562 7.90625 -19.46875 Z M 31.234375 -47.265625 "/></g></g><g style="fill:#406e89;fill-opacity:1;"><g transform="translate(202.594995, 323.713939)"><path style="stroke:none" d="M 24.34375 -0.40625 C 23.59375 -0.195312 22.421875 0.00390625 20.828125 0.203125 C 19.242188 0.398438 17.675781 0.5 16.125 0.5 C 14.570312 0.5 13.203125 0.378906 12.015625 0.140625 C 10.835938 -0.0859375 9.84375 -0.503906 9.03125 -1.109375 C 8.21875 -1.722656 7.609375 -2.570312 7.203125 -3.65625 C 6.796875 -4.738281 6.59375 -6.15625 6.59375 -7.90625 L 6.59375 -61.46875 C 7.332031 -61.601562 8.515625 -61.785156 10.140625 -62.015625 C 11.765625 -62.253906 13.320312 -62.375 14.8125 -62.375 C 16.363281 -62.375 17.726562 -62.253906 18.90625 -62.015625 C 20.09375 -61.785156 21.09375 -61.363281 21.90625 -60.75 C 22.71875 -60.144531 23.328125 -59.300781 23.734375 -58.21875 C 24.140625 -57.132812 24.34375 -55.710938 24.34375 -53.953125 Z M 24.34375 -0.40625 "/></g></g><g style="fill:#406e89;fill-opacity:1;"><g transform="translate(233.529238, 323.713939)"><path style="stroke:none" d="M 24.234375 -19.875 L 24.234375 -0.40625 C 23.492188 -0.195312 22.328125 0.00390625 20.734375 0.203125 C 19.148438 0.398438 17.582031 0.5 16.03125 0.5 C 14.46875 0.5 13.09375 0.378906 11.90625 0.140625 C 10.726562 -0.0859375 9.75 -0.503906 8.96875 -1.109375 C 8.195312 -1.722656 7.609375 -2.570312 7.203125 -3.65625 C 6.796875 -4.738281 6.59375 -6.15625 6.59375 -7.90625 L 6.59375 -55.6875 C 6.59375 -57.101562 6.976562 -58.195312 7.75 -58.96875 C 8.53125 -59.75 9.597656 -60.378906 10.953125 -60.859375 C 13.253906 -61.660156 15.925781 -62.25 18.96875 -62.625 C 22.007812 -63 25.253906 -63.1875 28.703125 -63.1875 C 38.035156 -63.1875 45.066406 -61.222656 49.796875 -57.296875 C 54.523438 -53.378906 56.890625 -48.070312 56.890625 -41.375 C 56.890625 -37.1875 55.804688 -33.601562 53.640625 -30.625 C 51.484375 -27.65625 48.914062 -25.359375 45.9375 -23.734375 C 48.375 -20.421875 50.773438 -17.3125 53.140625 -14.40625 C 55.503906 -11.5 57.363281 -8.859375 58.71875 -6.484375 C 58.039062 -4.117188 56.804688 -2.3125 55.015625 -1.0625 C 53.222656 0.1875 51.210938 0.8125 48.984375 0.8125 C 47.492188 0.8125 46.207031 0.640625 45.125 0.296875 C 44.050781 -0.0351562 43.109375 -0.503906 42.296875 -1.109375 C 41.484375 -1.722656 40.738281 -2.46875 40.0625 -3.34375 C 39.382812 -4.226562 38.742188 -5.175781 38.140625 -6.1875 L 29.609375 -19.875 Z M 30.625 -33.375 C 33.195312 -33.375 35.226562 -34.03125 36.71875 -35.34375 C 38.207031 -36.664062 38.953125 -38.609375 38.953125 -41.171875 C 38.953125 -43.742188 38.117188 -45.6875 36.453125 -47 C 34.796875 -48.320312 32.175781 -48.984375 28.59375 -48.984375 C 27.582031 -48.984375 26.769531 -48.945312 26.15625 -48.875 C 25.550781 -48.8125 24.878906 -48.710938 24.140625 -48.578125 L 24.140625 -33.375 Z M 30.625 -33.375 "/></g></g><g style="fill:#406e89;fill-opacity:1;"><g transform="translate(295.296326, 323.713939)"><path style="stroke:none" d="M 19.671875 -59.640625 C 20.828125 -60.316406 22.566406 -60.957031 24.890625 -61.5625 C 27.222656 -62.164062 29.578125 -62.46875 31.953125 -62.46875 C 35.328125 -62.46875 38.316406 -61.976562 40.921875 -61 C 43.523438 -60.019531 45.195312 -58.484375 45.9375 -56.390625 C 47.15625 -52.867188 48.472656 -48.773438 49.890625 -44.109375 C 51.316406 -39.453125 52.738281 -34.640625 54.15625 -29.671875 C 55.582031 -24.703125 56.96875 -19.796875 58.3125 -14.953125 C 59.664062 -10.117188 60.851562 -5.84375 61.875 -2.125 C 61.0625 -1.175781 59.84375 -0.414062 58.21875 0.15625 C 56.59375 0.726562 54.664062 1.015625 52.4375 1.015625 C 50.8125 1.015625 49.441406 0.878906 48.328125 0.609375 C 47.210938 0.335938 46.300781 -0.0664062 45.59375 -0.609375 C 44.882812 -1.148438 44.304688 -1.859375 43.859375 -2.734375 C 43.421875 -3.617188 43.035156 -4.632812 42.703125 -5.78125 L 40.875 -12.78125 L 22.515625 -12.78125 C 21.972656 -10.75 21.429688 -8.648438 20.890625 -6.484375 C 20.347656 -4.328125 19.804688 -2.234375 19.265625 -0.203125 C 18.316406 0.128906 17.316406 0.414062 16.265625 0.65625 C 15.222656 0.894531 13.957031 1.015625 12.46875 1.015625 C 9.019531 1.015625 6.46875 0.425781 4.8125 -0.75 C 3.15625 -1.9375 2.328125 -3.578125 2.328125 -5.671875 C 2.328125 -6.617188 2.460938 -7.566406 2.734375 -8.515625 C 3.003906 -9.460938 3.3125 -10.578125 3.65625 -11.859375 C 4.125 -13.691406 4.78125 -15.957031 5.625 -18.65625 C 6.46875 -21.363281 7.394531 -24.289062 8.40625 -27.4375 C 9.425781 -30.582031 10.507812 -33.8125 11.65625 -37.125 C 12.8125 -40.4375 13.894531 -43.5625 14.90625 -46.5 C 15.925781 -49.4375 16.859375 -52.054688 17.703125 -54.359375 C 18.546875 -56.660156 19.203125 -58.421875 19.671875 -59.640625 Z M 31.84375 -46.546875 C 30.894531 -43.710938 29.828125 -40.550781 28.640625 -37.0625 C 27.460938 -33.582031 26.398438 -30.050781 25.453125 -26.46875 L 38.03125 -26.46875 C 37.082031 -30.125 36.117188 -33.691406 35.140625 -37.171875 C 34.160156 -40.648438 33.265625 -43.773438 32.453125 -46.546875 Z M 31.84375 -46.546875 "/></g></g></g></svg>